<?xml version="1.0" encoding="utf-8"?>
<!-- Generator: Adobe Illustrator 21.1.0, SVG Export Plug-In . SVG Version: 6.00 Build 0)  -->
<svg version="1.1" id="Layer_1" xmlns="http://www.w3.org/2000/svg" xmlns:xlink="http://www.w3.org/1999/xlink" x="0px" y="0px"
	 viewBox="0 0 500 500" style="enable-background:new 0 0 500 500;" xml:space="preserve">
<g>
	<rect x="345.4" y="191.7" width="23.2" height="69.4"/>
	<path d="M79.7,200.4l-28.6,61.2H20.3l34-70.3c4.5-9.2,14.4-10.5,25.3-10.5c11,0,20.9,1.3,25.3,10.5l34,70.3h-30.8L79.7,200.4"/>
	<path d="M280.8,261.6c-4.8,0-9-3.7-11.5-9.3c-29.8-64.8,0,0-27.9-60.6h26.7l24,51.5l24-51.5h26.7c-27.9,60.6,1.9-4.2-27.9,60.6
		c-2.6,5.6-6.8,9.3-11.5,9.3C295.8,261.6,288.3,261.6,280.8,261.6"/>
	<polyline points="313.9,242.1 314,242 313.9,242.1 	"/>
	<path d="M173.3,216.4c-1.5-3-2.8-5.1-6.4-4.9c0,16.7,0,33.4,0,50.1h-24.7v-56c0-3.9,0.3-6.8,1.7-9.2c1.4-2.6,3.7-4.5,7.9-4.7h29.7
		c7.8,0.3,9.7,4.8,11.8,9.7c5.1,11.5,8.9,24.4,14.5,35.5c1.5,3,2.8,5.1,6.4,4.9c0-16.7,0-33.4,0-50.1h24.7v56c0,3.9-0.3,6.9-1.6,9.2
		c-1.4,2.6-3.7,4.6-7.9,4.7h-29.6c-7.9-0.3-9.7-4.8-11.8-9.7C182.6,240.2,179,227.9,173.3,216.4"/>
	<path d="M425,214.2c3.5-1.1,5.9-2,5.6-4.6c-19.2,0-38.5,0-57.7,0v-17.9h64.5c7.5,0,15.7,1.1,16.1,6.9v18.9
		c-0.4,5.7-5.5,8.3-11.2,9.8c-13.2,3.7-28.1,7.7-40.9,11.7c-3.5,1.1-5.9,2-5.6,4.7c19.2,0,38.5,0,57.8,0v17.9H389
		c-7.5,0-15.7-1.2-16.1-6.9v-18.9c0.4-5.7,5.5-8.3,11.2-9.8C397.5,222.3,411.8,218.4,425,214.2"/>
	<path d="M471.8,185.8c-3.7,0-6.8,3-6.8,6.8s3.1,6.8,6.8,6.8c3.8,0,6.8-3,6.8-6.8C478.6,188.9,475.6,185.8,471.8,185.8 M471.8,200.4
		c-4.3,0-7.8-3.5-7.8-7.9c0-4.3,3.5-7.8,7.8-7.8s7.9,3.5,7.9,7.8C479.7,196.9,476.2,200.4,471.8,200.4"/>
	<path d="M469.3,192.1h2.3c0.5,0,0.9-0.1,1.2-0.2c0.3-0.1,0.5-0.3,0.6-0.5s0.2-0.5,0.2-0.8c0-0.4-0.1-0.7-0.4-1s-0.7-0.4-1.3-0.4
		h-2.6L469.3,192.1 M468.3,196.9v-8.6h3.6c0.7,0,1.3,0.1,1.7,0.2c0.4,0.2,0.7,0.4,0.9,0.8c0.2,0.4,0.3,0.8,0.3,1.3
		c0,0.6-0.2,1.1-0.6,1.5s-1,0.7-1.7,0.8c0.3,0.1,0.5,0.3,0.6,0.4c0.3,0.3,0.6,0.7,0.9,1.1l1.4,2.3H474l-1.1-1.8
		c-0.3-0.5-0.6-0.9-0.8-1.2c-0.2-0.3-0.4-0.4-0.6-0.5c-0.1-0.1-0.3-0.2-0.5-0.2c-0.1,0-0.3-0.1-0.6-0.1h-1.2v3.8h-0.9V196.9z"/>
	<rect x="73.1" y="283.1" width="3.9" height="27.2"/>
	<path d="M81.8,296.1c0-2.1,0-3.7-0.2-5.3h3.5l0.2,3.2h0.1c1-1.8,3.5-3.6,7.1-3.6c3,0,7.6,1.6,7.6,8.3v11.7h-3.9v-11.2
		c0-3.2-1.3-5.8-5-5.8c-2.5,0-4.5,1.6-5.2,3.6c-0.2,0.4-0.3,1.1-0.3,1.7v11.8h-3.9L81.8,296.1"/>
	<path d="M109.4,286.1v4.7h5.6v2.7h-5.6V304c0,2.4,0.8,3.8,2.9,3.8c1.1,0,1.7-0.1,2.3-0.2l0.2,2.7c-0.7,0.2-2,0.5-3.5,0.5
		c-1.8,0-3.3-0.6-4.2-1.5c-1.1-1.1-1.5-2.8-1.5-5.1v-10.6h-3.3v-2.7h3.3v-3.6L109.4,286.1"/>
	<path d="M131.2,298.6c0.1-2.2-1-5.8-5.4-5.8c-4,0-5.7,3.3-6,5.8H131.2 M119.8,301.1c0.1,4.8,3.4,6.8,7.3,6.8c2.8,0,4.5-0.5,6-1
		l0.7,2.5c-1.4,0.6-3.8,1.2-7.2,1.2c-6.6,0-10.6-4-10.6-9.8c0-5.9,3.9-10.6,10.1-10.6c7,0,8.8,5.6,8.8,9.2c0,0.7,0,1.3-0.1,1.7
		L119.8,301.1z"/>
	<rect x="138.1" y="281.7" width="3.9" height="28.6"/>
	<rect x="146.7" y="281.7" width="3.9" height="28.6"/>
	<path d="M155.3,290.8h3.9v19.5h-3.9V290.8z M157.2,287.2c-1.5,0-2.4-1.1-2.4-2.3c0-1.2,1-2.3,2.5-2.3s2.5,1,2.5,2.3
		C159.7,286.1,158.8,287.2,157.2,287.2L157.2,287.2z"/>
	<path d="M178.4,298.4c0-0.6-0.1-1.1-0.2-1.6c-0.7-2.1-2.6-3.8-5.5-3.8c-3.7,0-6.4,2.8-6.4,7.4c0,3.8,2.2,7,6.3,7
		c2.5,0,4.6-1.4,5.4-3.7c0.2-0.6,0.3-1.2,0.3-1.9L178.4,298.4 M182.3,307.4c0,4.5-1,7.2-3.1,9c-2.1,1.7-5.1,2.3-7.9,2.3
		c-2.6,0-5.4-0.6-7.2-1.6l1-2.7c1.4,0.8,3.7,1.6,6.3,1.6c4,0,6.9-1.9,6.9-6.9V307h-0.1c-1.2,1.8-3.5,3.3-6.8,3.3
		c-5.3,0-9.1-4.1-9.1-9.6c0-6.6,4.7-10.3,9.7-10.3c3.7,0,5.7,1.7,6.7,3.4h0.1l0.1-2.9h3.5c-0.1,1.4-0.2,3-0.2,5.3v11.2H182.3z"/>
	<path d="M200.6,298.6c0-2.2-1-5.8-5.4-5.8c-4,0-5.7,3.3-6,5.8H200.6 M189.2,301.1c0.1,4.8,3.4,6.8,7.3,6.8c2.8,0,4.5-0.5,6-1
		l0.7,2.5c-1.4,0.6-3.8,1.2-7.2,1.2c-6.6,0-10.6-4-10.6-9.8c0-5.9,3.9-10.6,10.1-10.6c7,0,8.8,5.6,8.8,9.2c0,0.7,0,1.3-0.1,1.7
		L189.2,301.1z"/>
	<path d="M207.4,296.1c0-2.1-0.1-3.7-0.2-5.3h3.5l0.2,3.2h0.1c1.1-1.8,3.5-3.6,7.1-3.6c3,0,7.6,1.6,7.6,8.3v11.7h-3.9v-11.2
		c0-3.2-1.3-5.8-5-5.8c-2.5,0-4.5,1.6-5.2,3.6c-0.2,0.4-0.3,1.1-0.3,1.7v11.8h-3.9L207.4,296.1"/>
	<path d="M235,286.1v4.7h5.6v2.7H235V304c0,2.4,0.8,3.8,2.9,3.8c1.1,0,1.7-0.1,2.3-0.3l0.2,2.7c-0.8,0.2-2,0.5-3.5,0.5
		c-1.8,0-3.3-0.6-4.2-1.5c-1.1-1.1-1.5-2.8-1.5-5.1v-10.6h-3.3v-2.7h3.3v-3.6L235,286.1"/>
	<path d="M252.5,310.7c-1.5,0-2.6-1.1-2.6-2.5c0-1.5,1.1-2.5,2.7-2.5c1.6,0,2.6,1,2.6,2.5C255.2,309.6,254.1,310.7,252.5,310.7
		L252.5,310.7"/>
	<path d="M265.5,306c1.7,1,4.2,1.8,6.9,1.8c3.9,0,6.3-1.9,6.3-4.6c0-2.5-1.6-4-5.6-5.4c-4.9-1.6-7.9-4-7.9-7.7
		c0-4.2,3.9-7.4,9.7-7.4c3,0,5.3,0.6,6.6,1.3l-1.1,2.9c-0.9-0.5-2.9-1.3-5.6-1.3c-4.1,0-5.6,2.2-5.6,4.1c0,2.5,1.8,3.8,6,5.2
		c5.1,1.8,7.6,4,7.6,8c0,4.2-3.4,7.8-10.4,7.8c-2.9,0-6-0.8-7.6-1.8L265.5,306"/>
	<path d="M299.6,298.6c0.1-2.2-1-5.8-5.4-5.8c-4,0-5.7,3.3-6,5.8H299.6 M288.2,301.1c0.1,4.8,3.4,6.8,7.3,6.8c2.8,0,4.5-0.5,6-1
		l0.7,2.5c-1.4,0.6-3.8,1.2-7.2,1.2c-6.6,0-10.6-4-10.6-9.8c0-5.9,3.9-10.6,10.1-10.6c7,0,8.8,5.6,8.8,9.2c0,0.7,0,1.3-0.1,1.7
		L288.2,301.1z"/>
	<path d="M323.6,309.6c-1,0.5-3.3,1.1-6.2,1.1c-6.5,0-10.7-4-10.7-10s4.5-10.4,11.5-10.4c2.3,0,4.4,0.5,5.4,1l-0.9,2.7
		c-0.9-0.4-2.4-0.9-4.5-0.9c-4.9,0-7.6,3.3-7.6,7.4c0,4.5,3.2,7.3,7.5,7.3c2.2,0,3.7-0.5,4.8-0.9L323.6,309.6"/>
	<path d="M344.3,305c0,2,0.1,3.8,0.2,5.3H341l-0.2-3.2h-0.1c-1,1.6-3.3,3.6-7.1,3.6c-3.4,0-7.4-1.7-7.4-8.5v-11.4h3.9v10.8
		c0,3.7,1.3,6.2,4.8,6.2c2.6,0,4.4-1.7,5.2-3.3c0.2-0.5,0.4-1.2,0.4-1.8v-12h3.9L344.3,305"/>
	<path d="M349.1,296.9c0-2.3,0-4.3-0.2-6.1h3.4l0.2,3.8h0.1c1-2.6,3.4-4.3,6-4.3c0.4,0,0.7,0,1.1,0.1v3.3c-0.4,0-0.8-0.1-1.4-0.1
		c-2.8,0-4.7,1.9-5.2,4.5c-0.1,0.5-0.1,1.1-0.1,1.7v10.4h-4L349.1,296.9"/>
	<path d="M361.8,290.8h3.9v19.5h-3.9V290.8z M363.7,287.2c-1.5,0-2.4-1.1-2.4-2.3c0-1.2,1-2.3,2.5-2.3s2.5,1,2.5,2.3
		C366.2,286.1,365.3,287.2,363.7,287.2L363.7,287.2z"/>
	<path d="M375.1,286.1v4.7h5.6v2.7h-5.6V304c0,2.4,0.8,3.8,2.9,3.8c1.1,0,1.7-0.1,2.3-0.3l0.2,2.7c-0.8,0.2-2,0.5-3.5,0.5
		c-1.8,0-3.3-0.6-4.2-1.5c-1.1-1.1-1.5-2.8-1.5-5.1v-10.6H368v-2.7h3.3v-3.6L375.1,286.1"/>
	<path d="M384.7,290.8l4.7,11.5c0.5,1.3,1.1,2.8,1.4,4h0.1c0.4-1.2,0.8-2.7,1.4-4.1l4.3-11.5h4.1l-5.9,13.9
		c-2.8,6.7-4.7,10.1-7.4,12.3c-2,1.5-3.8,2.1-4.8,2.3l-1-3c1-0.2,2.3-0.8,3.4-1.7c1.1-0.8,2.4-2.1,3.3-3.9c0.2-0.4,0.3-0.6,0.3-0.8
		c0-0.2-0.1-0.5-0.3-0.9l-7.9-18L384.7,290.8"/>
</g>
</svg>
