<?xml version="1.0" encoding="utf-8"?>
<!-- Generator: Adobe Illustrator 21.1.0, SVG Export Plug-In . SVG Version: 6.00 Build 0)  -->
<svg version="1.1" id="Layer_1" xmlns="http://www.w3.org/2000/svg" xmlns:xlink="http://www.w3.org/1999/xlink" x="0px" y="0px"
	 viewBox="0 0 500 500" style="enable-background:new 0 0 500 500;" xml:space="preserve">
<style type="text/css">
	.st0{fill:#E00D1D;}
</style>
<g>
	<path d="M143.3,236.3c0.4-1.3,1.1-2.6,1.1-6.5c0-3.7-1.8-13.9-10.8-18.1c-5.4-2.5-13.9-3.5-25.5-3.5c-7.8,0-14.3,0.5-19.9,2.3
		c-20,6.3-27,21.1-27,21.1l27.4,2.9c0,0,4.8-8.7,16.2-8.7c5.1,0,9.5,2.8,9.5,2.8s0.1,1,0.1,2c0,3-1.4,4.9-1.4,4.9
		c-7.3,2.8-21.6,5.6-29.9,7c-8.3,1.5-17,3.4-24.1,8.2c-8.9,6-11.2,15.1-11.2,19.8s1.9,8.9,5.5,12.2c3.6,3.3,8.5,4.6,16.6,4.6
		c19.3,0,31.4-11,31.4-11s-0.6,1.4-0.6,3.5c0,3.7,1.6,5.5,1.6,5.5h27.9c0,0-1-1.3-1-4c0-0.8,0.2-1.9,0.6-3.1
		C130.2,277.1,142.9,237.6,143.3,236.3 M101.4,264.3c-5.4,6-14.1,6.8-16.6,6.8s-7.1-0.8-7.1-5.8s5-7.8,8.4-9.2
		c3.4-1.4,11.1-3.2,14.4-4c3.4-0.8,8.2-2.3,8.2-2.3S107.5,257.5,101.4,264.3z"/>
	<path d="M485.8,236.3c0.4-1.3,1.1-2.6,1.1-6.5c0-3.7-1.8-13.9-10.8-18.1c-5.4-2.5-13.9-3.5-25.5-3.5c-7.8,0-14.3,0.5-19.9,2.3
		c-20,6.3-27,21.1-27,21.1l27.4,2.9c0,0,4.8-8.7,16.2-8.7c5.1,0,9.5,2.8,9.5,2.8s0.1,1,0.1,2c0,3-1.4,4.9-1.4,4.9
		c-7.3,2.8-21.6,5.6-29.9,7c-8.3,1.5-17,3.4-24.1,8.2c-8.9,6-11.2,15.1-11.2,19.8s1.9,8.9,5.5,12.2c3.6,3.3,8.5,4.6,16.5,4.6
		c19.3,0,31.4-11,31.4-11s-0.6,1.4-0.6,3.5c0,3.7,1.6,5.5,1.6,5.5h27.9c0,0-1-1.3-1-4c0-0.8,0.2-1.9,0.6-3.1
		C472.7,277.1,485.4,237.6,485.8,236.3 M443.9,264.3c-5.4,6-14.1,6.8-16.6,6.8s-7.1-0.8-7.1-5.8s5-7.8,8.4-9.2
		c3.4-1.4,11.1-3.2,14.5-4c3.3-0.8,8.2-2.3,8.2-2.3S450,257.5,443.9,264.3z"/>
	<path class="st0" d="M185.7,181.7h29c0,0-19.1,59.4-23.9,74.3c-7.2,21.9-23.5,31.4-40,31.4c-6.3,0-10.6-1.1-10.6-1.1
		s8.2-6.8,12.4-12.7c4.3-5.9,10.4-15.1,12.7-29.3c2.4-14.3,1.7-27.3-10.5-41.4s-33.8-14.7-38.6-14.7s-22.8,0.2-44.4,12.9
		s-32.8,31-37.6,43.5c-4.8,12.4-5.8,26.1-1,37.9c4.8,11.8,17.8,28.3,47.5,28.3c22.7,0,41-11.2,41-11.2v5.7c0,0-22.6,15-51.1,15
		c-32,0-57.4-18.4-57.4-50.4c0-41.2,46-90.5,101.6-90.5c29.2,0,44.4,14.7,51.1,28c5.3,10.4,5,20.1,5,20.1L185.7,181.7"/>
	<path d="M275.9,287.4h-29.2c0,0,14.6-44.6,15.3-47.2c0.5-1.5,0.8-3.7-0.3-5.5c-1.6-2.6-4.2-3.8-5.9-3.8c-4.4,0-14.5,3.5-17.4,13
		c-1.2,3.9-13.8,43.5-13.8,43.5h-29l33.7-105.7h28.9l-12.5,39.7c0,0,11.1-12.6,29.8-12.6c11.4,0,17.3,6.9,18.7,14
		c0.9,4.5-0.5,9.1-1.5,12.1C290.5,242.6,275.9,287.4,275.9,287.4"/>
	<path d="M314.5,208.7h28.9c0,0-13.2,41.3-14.9,46.6c-1.6,5.3,1.2,9.9,6,9.9c4.7,0,14.2-3.3,17.7-14c3.5-10.7,13.5-42.6,13.5-42.6
		H395l-25,76.8h-28.7l3.3-10.6c0,0-12,12.5-29.3,12.5c-17.4,0-21.8-13-18-25.1C301.1,250.2,314.5,208.7,314.5,208.7"/>
	<polyline points="145.7,304.1 140.1,304.1 140.1,300.8 155.1,300.8 155.1,304.1 149.5,304.1 149.5,320.3 145.7,320.3 145.7,304.1 	
		"/>
	<polyline points="159,320.3 159,300.8 173.1,300.8 173.1,304.1 162.9,304.1 162.9,308.4 172.3,308.4 172.3,311.8 162.9,311.8 
		162.9,317.1 173.5,317.1 173.5,320.3 159,320.3 	"/>
	<polyline points="197.3,300.8 201.2,300.8 201.2,308.5 209.8,308.5 209.8,300.8 213.7,300.8 213.7,320.3 209.8,320.3 209.8,311.8 
		201.2,311.8 201.2,320.3 197.3,320.3 197.3,300.8 	"/>
	<polyline points="221.9,320.3 218.3,320.3 218.3,300.8 221.8,300.8 230.6,313.8 230.6,300.8 234.2,300.8 234.2,320.3 230.8,320.3 
		221.9,307.6 221.9,320.3 	"/>
	<path d="M240.6,317.9c-1.7-1.8-2.6-4.2-2.6-7.3c0-3.1,0.9-5.6,2.6-7.4c1.7-1.8,4.1-2.8,7-2.8c3,0,5.3,0.9,7,2.8
		c1.7,1.8,2.6,4.3,2.6,7.4s-0.9,5.5-2.6,7.3c-1.7,1.8-4.1,2.7-7,2.7C244.7,320.6,242.3,319.7,240.6,317.9 M251.6,315.5
		c1-1.2,1.4-2.8,1.4-4.9s-0.5-3.8-1.4-5c-1-1.2-2.3-1.8-4-1.8s-3,0.6-4,1.8c-1,1.2-1.4,2.8-1.4,5c0,2.1,0.5,3.7,1.4,4.9
		c1,1.2,2.3,1.7,4,1.7S250.7,316.6,251.6,315.5z"/>
	<path d="M276.5,317.9c-1.7-1.8-2.6-4.2-2.6-7.3c0-3.1,0.9-5.6,2.6-7.4s4.1-2.8,7-2.8c3,0,5.3,0.9,7,2.8c1.7,1.8,2.6,4.3,2.6,7.4
		s-0.9,5.5-2.6,7.3s-4.1,2.7-7,2.7S278.2,319.7,276.5,317.9 M287.5,315.5c1-1.2,1.4-2.8,1.4-4.9s-0.5-3.8-1.4-5
		c-1-1.2-2.3-1.8-4-1.8s-3,0.6-4,1.8c-1,1.2-1.4,2.8-1.4,5c0,2.1,0.5,3.7,1.4,4.9c0.9,1.2,2.3,1.7,4,1.7S286.6,316.6,287.5,315.5z"
		/>
	<polyline points="260.2,320.3 260.2,300.8 264.1,300.8 264.1,317 272.8,317 272.8,320.3 260.2,320.3 	"/>
	<polyline points="321.9,312.1 315,300.8 319.5,300.8 324.1,308.5 324.1,308.5 328.2,300.8 332.6,300.8 325.8,312 325.8,320.3 
		321.9,320.3 321.9,312.1 	"/>
	<path d="M189.9,313.3c-0.2,0.9-0.6,1.6-1.1,2.2c-0.9,1.2-2.2,1.7-3.9,1.7s-2.9-0.6-3.9-1.7c-0.9-1.2-1.4-2.8-1.4-4.9s0.5-3.8,1.4-5
		s2.2-1.8,3.9-1.8s2.9,0.6,3.9,1.8c0.3,0.4,0.6,0.9,0.8,1.5l3.9-0.9c-0.4-1.1-1-2.1-1.8-3c-1.7-1.8-3.9-2.8-6.8-2.8
		c-2.9,0-5.1,0.9-6.8,2.8c-1.7,1.8-2.5,4.3-2.5,7.4s0.8,5.5,2.5,7.3s3.9,2.7,6.8,2.7c2.8,0,5.1-0.9,6.8-2.7c0.9-1,1.5-2.1,2-3.4
		L189.9,313.3"/>
	<path d="M311,309.9h-5.2v3.2h5.2v2.6c-0.7,0.6-2.4,1.6-5.2,1.6c-4.1,0-5.8-3.1-5.8-6.7s1.8-6.9,5.8-6.9c4.1,0,4.8,3.3,4.8,3.3
		l3.2-0.7c0,0-0.8-5.8-8-5.8c-3.3,0-9.5,1.5-9.5,10.1s6.2,10,9.5,10c2.7,0,4.6-1,5.2-1.4v1.2h3v-10.5L311,309.9"/>
</g>
</svg>
