<?xml version="1.0" encoding="utf-8"?>
<!-- Generator: Adobe Illustrator 21.1.0, SVG Export Plug-In . SVG Version: 6.00 Build 0)  -->
<svg version="1.1" id="Layer_1" xmlns="http://www.w3.org/2000/svg" xmlns:xlink="http://www.w3.org/1999/xlink" x="0px" y="0px"
	 viewBox="0 0 500 500" style="enable-background:new 0 0 500 500;" xml:space="preserve">
<style type="text/css">
	.st0{fill:#DB002E;}
	.st1{fill:#7A8082;}
</style>
<g>
	<path class="st0" d="M151.7,178.7c-8.5-7.6-21.3-9.7-40.4-9.8H16.9V263h93.9c19.4,0,32.5-2.8,40.9-10.7c8.4-8,10.9-20,11-36.3
		C162.6,198.5,160.2,186.4,151.7,178.7 M133.6,242.7c-4.4,3.3-11.6,4.3-20.7,4.2H38.6V185h76.7c9.1,0,15.5,1.2,19.3,4.7
		c3.8,3.3,6.3,9.7,6.3,22v9C140.9,233.4,137.9,239.4,133.6,242.7"/>
	<path class="st0" d="M310.1,212.3c-8.1-3.8-19.7-5.4-35.7-5.4h-48c-12.5,0-19.7-1-22.8-2.6c-1.6-0.8-2.2-1.5-2.7-2.6
		c-0.5-1-0.8-2.7-0.8-5c0-3.1,0.6-5,1.6-6.3c1.4-1.9,4.5-3.5,10.7-4.5c6.1-0.9,15-1.1,26.6-1.1h17.2c21.2,0,32.4,0.2,37.2,1.7
		c2.4,0.8,2.8,1.3,3.3,2.3s0.8,3.2,0.9,6.6l0.1,3.4h22.1v-4.3c0-4.2-0.7-8.1-2.6-11.7c-2.9-5.3-8.5-9-16.6-11.2
		c-8.2-2.2-19.3-3.2-34.5-3.3h-34.9c-16.9,0-29.6,1-38.7,4.9c-4.6,1.9-8.3,4.8-10.8,8.6s-3.6,8.5-3.6,13.9c0,6.1,1.1,11.2,3.9,15.4
		c4.3,6.3,11.8,9.4,22.2,11c10.5,1.6,24.5,1.9,43,1.9H278c9.9,0,16.2,0.8,19.1,2.4c1.5,0.8,2.2,1.5,2.7,2.6s0.9,2.7,0.9,5.1
		c0,2.8-0.4,4.8-1.1,6.2c-1,2-2.7,3.4-6.9,4.6c-4.1,1.1-10.4,1.7-19,1.7h-50.3c-9.9,0-16.1-1.1-19.3-2.7c-3-1.7-3.6-2.9-3.8-6.3
		v-7.4h-22.1v3.5v4.2c0,5.3,1.5,9.9,4.4,13.4c4.3,5.3,10.9,8.1,18.4,9.7s16.2,2,25.2,2h45c12.1,0,24.4-0.3,34.2-3.6
		c4.9-1.6,9.3-4.1,12.5-7.8c3.2-3.8,5-8.8,5-14.7v-5.6C322.8,223.1,318.3,216,310.1,212.3"/>
	<path class="st0" d="M462.3,227.1v8.5c0,2.6-0.4,4.6-1,5.9c-1,2-2.4,3.2-6,4.4c-3.6,1-9.1,1.5-16.8,1.5h-54.3
		c-7.2,0-13.5-0.9-17.5-3.1c-4-2.3-6.2-5.4-6.3-12V200c0.1-6.7,2.3-9.7,6.3-12s10.3-3.2,17.5-3.1H438c7.1,0,13.4,0.3,17.3,1.9
		c3.8,1.8,5.7,3.8,5.9,10.3v7H481v-10.5c0.1-6.4-2.4-13.1-8.7-17.5c-6.3-4.5-15.9-6.9-30.3-6.9h-59.4c-15.8,0-26.8,2.6-34.1,8.7
		c-7.3,6.1-9.9,15.4-9.9,26.6V228c0,11.3,2.6,20.5,9.9,26.6c7.3,6.1,18.2,8.7,34.1,8.7h58.6c16.3,0,26.5-2,33.2-6.7
		c6.8-4.8,8.7-12.3,8.6-20.4v-9.1H462.3"/>
	<polyline class="st1" points="17.1,325.1 22.3,300.5 36.2,300.5 35.7,302.6 24.1,302.6 22.2,311.2 33.5,311.2 33,313.3 21.8,313.3 
		19.3,325.1 17.1,325.1 	"/>
	<path class="st1" d="M38.4,325.1h-2l2.8-13.2c0.3-1.3,0.5-2.7,0.6-3.8h2.1l-0.4,2.5h0.1c1-1.7,2.8-2.9,4.5-3c0.7,0,1.4,0,2,0
		l-0.4,2c-0.4,0-0.8-0.1-1.2-0.1c-3,0-5.1,2.2-5.8,5.4L38.4,325.1"/>
	<path class="st1" d="M65.1,316.5c-0.9,4.5-4.4,9-9.9,9s-7-4.5-6-9c0.9-4.5,4.4-9,9.9-9C64.5,307.5,66,312,65.1,316.5 M58.6,309.4
		c-4.1,0-6.6,4-7.3,7.2s0.1,7.2,4.2,7.2s6.6-4,7.3-7.2S62.7,309.4,58.6,309.4"/>
	<path class="st1" d="M73.5,310.5L73.5,310.5c1.7-2,3.8-3,6-3c2.7,0,4.5,1.5,4.7,3.7c1.7-2,4-3.7,6.7-3.7c5.6,0,5,4.9,4.5,6.9
		l-2.2,10.7h-2l2.3-11c0.6-3-0.7-4.7-3.5-4.7c-3.4,0-5.5,2.8-6.1,5.9l-2.1,9.8h-2l2.3-11c0.6-3-0.7-4.7-3.5-4.7
		c-3.4,0-5.5,2.8-6.1,5.9l-2.1,9.8h-2l2.8-13.2c0.3-1.3,0.5-2.7,0.6-3.8h2.1L73.5,310.5"/>
	<polyline class="st1" points="120.6,302 112.5,302 112.9,299.9 131.3,299.9 130.9,302 122.9,302 118,325.1 115.8,325.1 120.6,302 	
		"/>
	<polyline class="st1" points="131.4,307.6 134.1,322.2 143.1,307.6 145.4,307.6 130.6,331.7 128.3,331.7 132.3,325.1 128.8,307.6 
		131.4,307.6 	"/>
	<path class="st1" d="M159.5,312.9c0.4-2.7-1-4-3.9-4c-3.2,0-5.9,3.3-6.7,7.3s0.4,7.4,3.6,7.4c2.7,0,4.9-1.7,5.6-4.1h2.3
		c-1.4,4-4.1,6-8.1,6c-5.2,0-6.7-4.5-5.7-9.3c1-4.7,4.6-9.3,9.8-9.3c3.6,0,6,2.2,5.4,5.9h-2.3"/>
	<path class="st1" d="M181.2,316.3c-1,4.6-4.5,9.3-10.1,9.3s-7.1-4.7-6.2-9.3c1-4.6,4.5-9.3,10.1-9.3
		C180.6,307.1,182.1,311.7,181.2,316.3 M174.6,309c-4.2,0-6.7,4.1-7.4,7.3c-0.7,3.2,0.1,7.3,4.3,7.3s6.7-4.1,7.4-7.3
		S178.8,309,174.6,309"/>
	<path class="st1" d="M201.8,325.6c-4,0-6.8-2.9-6-7.1h2.4c-0.7,3.9,1.9,5,5.2,5c2.8,0,6.4-1.6,7.1-4.8c0.5-2.5-1-3.7-3-4.4
		c-3.8-1.4-9.7-2.6-8.5-8.1c0.9-4.4,5.5-6.8,9.4-6.8c3.3,0,7.4,1.1,6.9,6h-2.4c0.6-3.1-2.1-3.9-4.6-3.9c-2.6,0-6.1,1.3-6.8,4.4
		c-1.5,7.1,13.4,3.9,11.5,12.5C211.9,323.9,206.8,325.6,201.8,325.6"/>
	<path class="st1" d="M220.3,316.8c-0.7,3.7,0.3,6.9,4.6,6.9c2.5,0,4.9-1.8,5.9-4.2h2.2c-2,4.2-5,6.1-9.2,6.1
		c-5.2,0-6.7-4.5-5.7-9.3c1-4.7,4.6-9.3,9.8-9.3c5.8,0,7.1,4.3,5.9,9.7L220.3,316.8 M232,314.9c0.5-3.4-0.8-5.9-4.4-5.9
		c-3.4,0-5.8,2.9-6.8,5.9H232z"/>
	<path class="st1" d="M251.2,312.9c0.4-2.7-1-4-3.9-4c-3.2,0-5.9,3.3-6.7,7.3c-0.9,4,0.4,7.4,3.6,7.4c2.7,0,5-1.7,5.6-4.1h2.3
		c-1.4,4-4.1,6-8.1,6c-5.2,0-6.7-4.5-5.7-9.3c1-4.7,4.6-9.3,9.8-9.3c3.6,0,6,2.2,5.4,5.9h-2.3"/>
	<path class="st1" d="M271.4,307.6h2.1l-2.9,13.5c-0.3,1.4-0.5,2.8-0.7,3.9h-2.2l0.4-2.6v-0.1c-1.7,2.1-3.9,3.2-6.1,3.2
		c-5.7,0-5.1-5-4.7-7.1l2.3-10.9h2.1l-2.4,11.3c-0.6,3,0.7,4.8,3.6,4.8c3.4,0,5.6-2.9,6.3-6L271.4,307.6"/>
	<path class="st1" d="M278.3,325.1h-2.1l2.9-13.5c0.3-1.3,0.5-2.8,0.7-3.9h2.2l-0.4,2.6h0.1c1-1.8,2.8-3,4.6-3.1c0.7,0,1.4,0,2.1,0
		l-0.4,2c-0.4,0-0.8-0.1-1.3-0.1c-3.1,0-5.2,2.2-6,5.6L278.3,325.1"/>
	<path class="st1" d="M294.6,307.6l-3.7,17.5h-2.1l3.7-17.5H294.6 M295.9,302.5h-2.4l0.6-2.6h2.4L295.9,302.5z"/>
	<path class="st1" d="M302.2,309.5h-3.5l0.4-1.9h3.5l0.8-3.7l2.3-0.9l-1,4.6h4l-0.4,1.9h-4l-2.5,11.7c-0.4,1.6,0.3,2.5,1.9,2.5
		c0.6,0,1.3,0,1.9-0.2l-0.4,1.8c-0.7,0.2-1.5,0.3-2.2,0.3c-4.4,0-3.6-2.8-3.1-5.2L302.2,309.5"/>
	<polyline class="st1" points="313.7,307.6 316.5,322.2 325.4,307.6 327.7,307.6 312.9,331.7 310.6,331.7 314.7,325.1 311.2,307.6 
		313.7,307.6 	"/>
	<path class="st1" d="M339.6,325.1l5.3-25.1h6.3c4.9-0.1,10,1.1,8.8,7.1c-1.3,6-7,7.2-11.8,7.1h-4l-2.3,10.9H339.6 M344.6,312h5.5
		c3.4,0,6.6-1.1,7.4-5s-1.9-5-5.3-5h-5.5L344.6,312z"/>
	<path class="st1" d="M363.2,325.1h-2.1l2.9-13.5c0.3-1.3,0.5-2.8,0.7-3.9h2.2l-0.4,2.6h0.1c1-1.8,2.8-3,4.6-3.1c0.7,0,1.4,0,2.1,0
		l-0.4,2c-0.4,0-0.8-0.1-1.3-0.1c-3.1,0-5.2,2.2-6,5.6L363.2,325.1"/>
	<path class="st1" d="M390.5,316.3c-1,4.6-4.5,9.3-10.1,9.3s-7.2-4.7-6.2-9.3c1-4.6,4.5-9.3,10.1-9.3
		C389.9,307.1,391.5,311.7,390.5,316.3 M383.9,309c-4.2,0-6.8,4.1-7.4,7.3c-0.7,3.2,0.1,7.3,4.3,7.3c4.2,0,6.7-4.1,7.4-7.3
		C388.9,313.1,388.1,309,383.9,309"/>
	<path class="st1" d="M406.5,322.5v-0.1c-1.9,2.1-4.2,3.2-6.7,3.2c-5.2,0-6.1-4.9-5.2-9.3c1-4.5,4-9.2,9.1-9.2
		c2.3,0,4.5,1.1,5.3,3.2l0.1-0.1l2.2-10.2h2.1l-4.5,21.2c-0.3,1.4-0.5,2.7-0.7,3.9H406L406.5,322.5 M403.7,309c-4,0-6,3.7-6.7,7
		c-0.7,3.2-0.7,7.7,3.3,7.7c4.6,0,6.7-3.8,7.6-7.8C408.6,312.3,407.7,309,403.7,309"/>
	<path class="st1" d="M429.6,307.6h2.1l-2.9,13.5c-0.3,1.4-0.5,2.8-0.6,3.9H426l0.4-2.6v-0.1c-1.7,2.1-3.9,3.2-6.1,3.2
		c-5.7,0-5.1-5-4.7-7.1l2.3-10.9h2.1l-2.4,11.3c-0.6,3,0.7,4.8,3.6,4.8c3.4,0,5.6-2.9,6.3-6L429.6,307.6"/>
	<path class="st1" d="M448.1,312.9c0.4-2.7-1-4-3.9-4c-3.2,0-5.9,3.3-6.7,7.3c-0.8,4,0.4,7.4,3.6,7.4c2.7,0,4.9-1.7,5.6-4.1h2.3
		c-1.4,4-4.1,6-8.1,6c-5.2,0-6.7-4.5-5.7-9.3c1-4.7,4.6-9.3,9.8-9.3c3.6,0,6.1,2.2,5.4,5.9h-2.3"/>
	<path class="st1" d="M457.6,309.5h-3.5l0.4-1.9h3.5l0.8-3.7l2.3-0.9l-1,4.6h4l-0.4,1.9h-4l-2.5,11.7c-0.4,1.6,0.3,2.5,1.9,2.5
		c0.6,0,1.3,0,1.9-0.2l-0.4,1.8c-0.7,0.2-1.5,0.3-2.2,0.3c-4.4,0-3.6-2.8-3.1-5.2L457.6,309.5"/>
	<path class="st1" d="M475,307.1c3.3,0,5.8,1.1,5.3,4.8H478c0.3-2.2-1.5-2.9-3.7-2.9c-1.9,0-4.1,0.8-4.5,2.8c-0.6,2.6,2.9,2.3,7.2,4
		c1.7,0.6,2.5,2.2,2.1,4.1c-0.8,3.9-4.9,5.7-8.6,5.7c-3,0-6.2-1.4-5.5-5.3h2.3c-0.4,2.6,1.8,3.4,4.1,3.4c2.2,0,4.8-1,5.3-3.5
		s-2.1-2.9-4.8-3.5c-2.6-0.7-5.2-1.4-4.5-4.7C468.3,308.3,471.9,307.1,475,307.1"/>
</g>
</svg>
