<?xml version="1.0" encoding="utf-8"?>
<!-- Generator: Adobe Illustrator 21.1.0, SVG Export Plug-In . SVG Version: 6.00 Build 0)  -->
<svg version="1.1" id="Layer_1" xmlns="http://www.w3.org/2000/svg" xmlns:xlink="http://www.w3.org/1999/xlink" x="0px" y="0px"
	 viewBox="0 0 500 500" style="enable-background:new 0 0 500 500;" xml:space="preserve">
<style type="text/css">
	.st0{fill:#00529B;}
	.st1{fill:#FFFFFF;}
</style>
<g>
	<path class="st0" d="M441.9,337.1c10.8,0,19.6-8.8,19.6-19.6v-135c0-10.8-8.8-19.6-19.6-19.6H58.1c-10.8,0-19.6,8.8-19.6,19.6
		v135.1c0,10.8,8.8,19.6,19.6,19.6h383.8"/>
	<rect x="226.2" y="205.3" class="st1" width="44.9" height="89.4"/>
	<polyline class="st1" points="157.1,256.6 157.1,294.7 202.1,294.7 202.1,205.3 157.1,205.3 157.1,243.4 126.9,243.4 126.9,205.3 
		82,205.3 82,294.7 126.9,294.7 126.9,256.6 157.1,256.6 	"/>
	<path class="st1" d="M367.8,205.3h-73.5v89.8h73.5c25.8,0,49.1-19.4,49.1-44.9C416.9,224.8,393.6,205.3,367.8,205.3 M338.8,286.7
		v-73.4c16.4,0,29.2-3,29.2,36.8C368,289.7,357.3,286.7,338.8,286.7"/>
</g>
</svg>
