<?xml version="1.0" encoding="utf-8"?>
<!-- Generator: Adobe Illustrator 21.1.0, SVG Export Plug-In . SVG Version: 6.00 Build 0)  -->
<svg version="1.1" id="Layer_1" xmlns="http://www.w3.org/2000/svg" xmlns:xlink="http://www.w3.org/1999/xlink" x="0px" y="0px"
	 viewBox="0 0 500 500" style="enable-background:new 0 0 500 500;" xml:space="preserve">
<style type="text/css">
	.st0{fill:#D6081C;}
	.st1{fill:#737171;}
	.st2{fill:#A0A0A0;}
</style>
<g>
	<path class="st0" d="M37.6,191.9l-22.1,59.9h19.1l10.6-28.4h20.2l-10.6,28.4l16.7,0.1c0,0,3.6-0.7,6-8.5
		c2.4-7.8,18.4-51.5,18.4-51.5H76.8l-8.2,22.6l-20.1-0.1l8.2-22.6L37.6,191.9z"/>
	<polygon class="st0" points="84.3,251.9 106.3,192 125.5,192 103.4,251.9 	"/>
	<path class="st0" d="M114,251.9l22-59.9h19.2l-7.7,20.8c0.3,0.1,0.7,0,1.2-0.3c2.3-1.3,26.6-20.5,26.6-20.5H190l-30,23.1l19.1,36.9
		h-17.3c-2.6,0-3.1-1.3-5.9-5.9c-3.4-5.5-6.5-14.6-9.6-17.7c-1.7-1.7-3.6,0-4.6,1.6l-8.6,22.1H114V251.9z"/>
	<polygon class="st1" points="235.5,251.9 257.6,192 276.8,192 254.7,251.9 	"/>
	<polygon class="st1" points="318,251.9 340,192 359.2,192 337.1,251.9 	"/>
	<path class="st1" d="M194.2,191.8l5.1,60.1h12.4c0,0,4.5-2.6,10.4-12.9c5.9-10.3,31.3-47,31.3-47h-11.7l-26.1,39.5l-3.2-39.6
		L194.2,191.8z"/>
	<path class="st1" d="M267.8,244.2l-2.8,7.6h37.1c4.9,0,15.1-5.7,15.2-16.4s-13.3-21.9-17.1-25.8c-3.7-3.8-3.1-10.1,4.3-10.1h23.3
		l2.8-7.4h-33.3c-3.4,0-15.3,3.3-15.4,16.4c-0.1,9.2,6.1,15.1,14.2,23.5c4.8,5,4.2,12-1.8,12C287.8,244.1,267.8,244.2,267.8,244.2"
		/>
	<path class="st1" d="M410.6,251.8h10l14.3-39.3l12.5,34.3c0,0,1.9,5,5.6,5h9.3l22.2-60h-10l-14.7,38.9l-15.4-38.9h-12.3
		L410.6,251.8z"/>
	<rect x="156.9" y="270.6" class="st2" width="6.9" height="6.4"/>
	<polygon class="st2" points="151.5,309.1 148,309.1 144.5,309.1 144.5,292.9 130.7,292.9 130.7,309.1 127.1,309.1 123.6,309.1 
		123.6,270.6 127.1,270.6 130.7,270.6 130.7,286.3 144.5,286.3 144.5,270.6 148,270.6 151.5,270.6 	"/>
	<polygon class="st2" points="163.8,309.1 160.4,309.1 156.9,309.1 156.9,280.2 160.3,280.2 163.8,280.2 	"/>
	<polygon class="st2" points="200.2,309.1 197.3,309.1 191,283.3 191,283.3 184.7,309.1 181.8,309.1 179,309.1 167.8,270.6 
		171.4,270.6 175.1,270.6 181.9,297.7 188.3,270.6 191,270.6 193.6,270.6 200.1,297.7 206.9,270.6 210.5,270.6 214.1,270.6 
		203,309.1 	"/>
	<polygon class="st2" points="251.2,309.2 244.5,309.2 244.5,286.3 241.4,286.3 241.4,280.5 244.5,280.5 244.5,270.6 251.2,270.6 
		251.2,280.5 255.2,280.5 255.2,286.3 251.2,286.3 	"/>
	<path class="st2" d="M264.2,300.5c1.6,1.7,3.5,2.6,5.8,2.6c1.3,0,2.5-0.4,3.6-1.1s2-1.6,2.6-2.8h7.4c-0.9,3-2.6,5.5-5.1,7.3
		s-5.4,2.7-8.7,2.7c-4.1,0-7.5-1.4-10.4-4.3s-4.3-6.4-4.3-10.5s1.4-7.6,4.3-10.5c2.8-2.9,6.3-4.3,10.4-4.3c3.3,0,6.2,0.9,8.7,2.7
		c2.5,1.8,4.3,4.3,5.2,7.3h-7.4c-0.6-1.3-1.5-2.3-2.6-3s-2.5-1-4-1c-2.2,0-4,0.8-5.6,2.5c-1.5,1.7-2.3,3.7-2.3,6.1
		C261.9,296.7,262.7,298.8,264.2,300.5"/>
	<path class="st2" d="M310,309.2h-3.3h-3.3v-15.9c0-2.5-0.5-4.4-1.4-5.8c-0.9-1.3-2.3-2-4.1-2c-1.9,0-3.3,0.7-4.3,2
		c-0.9,1.3-1.4,3.3-1.4,6v15.6h-3.3h-3.3v-38.6h3.3h3.3v11.1c2.1-2,4-2.9,6.8-2.9c3.3,0,6.3,1.8,8.2,4.1c1.9,2.2,2.9,5.2,2.9,9v17.4
		H310z"/>
	<path class="st2" d="M225.5,285.6c-2.3,0-4.3,0.8-5.8,2.5c-1.6,1.7-2.3,3.8-2.3,6.3s0.8,4.6,2.3,6.2c1.6,1.7,3.5,2.5,5.8,2.5
		s4.3-0.8,5.9-2.5c1.6-1.7,2.4-3.8,2.4-6.3s-0.8-4.6-2.4-6.3C229.8,286.4,227.9,285.6,225.5,285.6 M239.7,309.2h-3h-3.1v-4
		c-2.6,2.6-5.7,3.9-9.4,4c-3.8,0-7-1.4-9.7-4.3s-4-6.4-4-10.5s1.3-7.6,4-10.5s5.9-4.3,9.7-4.3c3.7,0,6.8,1.3,9.4,4v-3.1h6.1V309.2z"
		/>
	<path class="st2" d="M340.2,309.2c-8.1,0-13.4-4.5-13.4-10.4h6.1c0,3.4,3,5.4,7.2,5.4c4.7,0,7.7-2.3,7.7-5.5c0-2.4-1.6-4-3.9-5.1
		c-1.8-0.9-4.7-2.2-10.2-4.5c-3.6-1.5-6.1-4.8-6.1-8.6c0-5.7,5.2-9.8,12.7-9.8c7.8,0,13.1,4.3,13.1,10.2h-6.2c0-3.3-3-5.2-6.9-5.2
		c-3.7,0-6.5,1.7-6.5,4.9c0,1.8,1.3,3.3,3.5,4.2c3.6,1.5,6.8,2.9,9.7,4.2c4.6,2.1,7.1,5.5,7.1,9.8C354,304.8,348,309.2,340.2,309.2"
		/>
	<path class="st2" d="M375.5,290.6c0-2.3-1.4-5.2-6.5-5.2c-4.1,0-6.6,1.9-6.6,5.2v1.1h13.1V290.6z M381.5,296.5h-19.1v2.4
		c0,2.4,1.3,5.3,6.6,5.3c3.4,0,5.7-1.8,6.3-4.7h6.1c-0.9,6-5.6,9.6-12.4,9.6c-7.6,0-12.5-4-12.5-10.2v-8.4c0-6.1,5.1-10.1,12.5-10.1
		c7.5,0,12.5,3.9,12.5,10.1V296.5z"/>
	<path class="st2" d="M395.5,286.2c-2.1,0-4.9,1.5-4.9,5.4V309h-6v-27.7h6v2.5c1-1.7,3-2.5,5.7-2.5h2.5v4.9H395.5z"/>
	<path class="st2" d="M402,281.3h6V309h-6V281.3z M401.9,270.5h6v6.4h-6V270.5z"/>
	<path class="st2" d="M430.3,290.5c0-2.3-1.4-5.2-6.6-5.2c-4.1,0-6.6,1.9-6.6,5.2v1.1h13.1v-1.1H430.3z M436.2,296.5h-19.1v2.4
		c0,2.4,1.3,5.3,6.6,5.3c3.4,0,5.7-1.8,6.3-4.7h6.1c-0.9,6-5.6,9.6-12.4,9.6c-7.6,0-12.5-4-12.5-10.2v-8.4c0-6.1,5.1-10.1,12.5-10.1
		c7.5,0,12.5,3.9,12.5,10.1V296.5z"/>
	<path class="st2" d="M450.5,309c-7,0-12-3.5-12.4-9.5h6c0.4,3,2.8,4.7,6.4,4.7c3.1,0,6.7-1,6.7-3.8c0-1.6-1.4-2.4-3.3-2.9
		c-2.7-0.7-5.2-1.2-7.9-1.8c-4.2-0.9-7.4-3.3-7.4-7.1c0-5.7,5.6-8.1,11.8-8.1c6.7,0,11.7,3.2,12.3,8.9h-6.2c-0.5-2.5-2.5-4-6.2-4
		c-2.8,0-5.7,0.8-5.7,3.2c0,1.4,1.2,2,3.1,2.4c2.5,0.6,5.7,1.2,8.4,2c3.8,1.1,7.2,3.4,7.2,7.1C463.1,306.6,457.1,309,450.5,309"/>
	<path class="st1" d="M394.4,190.8c-23-0.5-31.6,13.5-37.1,27.4c-5.5,14-10.2,34.2,9.5,34.7l9.1,0.2c11,0.2,24.9-0.5,35.5-26.7
		C421.9,200.3,417.4,191.3,394.4,190.8z M399.3,208.1L388,237.7c-2,5.1-8.1,7.7-11.1,7.7h-3.2c-6.7,0-4.5-8.6-4.5-8.6l10.5-28.7
		c3.1-7,7.1-9.9,11.2-9.9h4.8C400.4,198.1,401.2,203.3,399.3,208.1z"/>
</g>
</svg>
