<?xml version="1.0" encoding="utf-8"?>
<!-- Generator: Adobe Illustrator 21.1.0, SVG Export Plug-In . SVG Version: 6.00 Build 0)  -->
<svg version="1.1" id="Layer_1" xmlns="http://www.w3.org/2000/svg" xmlns:xlink="http://www.w3.org/1999/xlink" x="0px" y="0px"
	 viewBox="0 0 500 500" style="enable-background:new 0 0 500 500;" xml:space="preserve">
<style type="text/css">
	.st0{fill:#E73745;}
</style>
<g>
	<path class="st0" d="M264.1,290c-0.8-0.3-1.7-0.5-2.5-0.8c-4.7-1.5-7.8-5.4-7.7-9.6c0.1-3.9,2.9-6.9,6.9-7.4c3.5-0.5,7.2,2,8.2,5.5
		c0.2,0.6,0.1,1.3,0.4,1.9c0.4,0.7,0.8,1.7,1.5,1.9c0.7,0.2,1.8-0.2,2.3-0.8c0.8-1,1.1-2.4,1.8-3.6c2.4-3.8,1.7-7-0.7-10.8
		c-7.2-11.6-13.9-23.6-20.8-35.4c-0.4-0.6-0.7-1.3-1.3-2.2c0.8,0,1.3,0,1.7,0c5.9,0,11.7,0,17.6,0c1.2,0,1.9,0.3,2.5,1.4
		c3.4,6,6.9,11.9,10.4,17.8c0.4,0.7,0.8,1.4,1.4,2.4c0.4-0.7,0.7-1.2,0.9-1.8c2.6-6.2,5.2-12.3,7.7-18.5c0.4-1,0.9-1.3,1.9-1.3
		c7.3,0,14.7,0,22,0c1.1,0,1.5,0.3,1.9,1.3c2.5,7.3,5.1,14.6,7.7,21.9c0.2,0.7,0.5,1.4,0.9,2.5c0.4-1,0.7-1.7,0.9-2.3
		c2.5-7.3,5-14.5,7.4-21.8c0.4-1.1,0.8-1.6,2.1-1.5c3.1,0.1,6.1,0.1,9.2,0c1.4,0,2,0.3,2.5,1.7c2.4,7,4.9,13.9,7.3,20.9
		c0.2,0.5,0.4,1,0.8,1.9c0.3-0.9,0.6-1.4,0.8-1.9c2.4-7,4.8-14,7.1-21c0.4-1.3,1-1.8,2.4-1.7c1.7,0.1,3.4,0,5.3,0
		c-0.2,0.7-0.3,1.2-0.4,1.8c-4.4,13-8.9,25.9-13.3,38.9c-0.4,1.1-0.8,1.6-2.1,1.6c-3.2-0.1-6.5-0.1-9.7,0c-1.2,0-1.7-0.4-2.1-1.5
		c-2.4-6.9-4.8-13.8-7.3-20.7c-0.2-0.5-0.4-1.1-0.8-2c-0.4,0.9-0.6,1.4-0.8,1.9c-2.3,6.8-4.7,13.6-7,20.5c-0.5,1.4-1,2-2.5,1.9
		c-3.3-0.1-6.6-0.1-9.9,0c-1.4,0-1.9-0.5-2.4-1.7c-4.5-12.8-9-25.5-13.5-38.3c-0.2-0.6-0.5-1.2-0.8-2.2c-0.4,0.8-0.7,1.3-0.9,1.9
		c-6.5,15.7-12.9,31.3-19.4,47c-0.7,1.7-1.5,3.4-2.5,5c-2.4,4-6.1,6.2-10.5,7.3C267.2,290,265.6,290,264.1,290z"/>
	<path class="st0" d="M83.6,210c0,0.7-0.1,1.4-0.1,2.1c0,18.9,0,37.7,0,56.6c0,0.7,0,1.4,0,2.2c-7.5,0-14.8,0-22.5,0
		c0-0.7,0-1.3,0-2c0-8.8,0-17.5,0-26.3c0-1.6-0.5-2-2-2c-3.5,0.1-6.9,0.1-10.4,0c-1.4,0-1.8,0.4-1.8,1.8c0.1,8.9,0,17.7,0,26.6
		c0,0.6-0.1,1.1-0.1,1.9c-7.5,0-15,0-22.4,0c0-20.3,0-40.6,0-61c7.5,0,15,0,22.6,0c0,7.9,0,15.7,0,23.7c4.8,0,9.3,0,14.1,0
		c0-8,0-15.9,0-23.7C68.6,210,76.1,210,83.6,210z"/>
	<path class="st0" d="M475.6,210c0,0.8-0.1,1.5-0.1,2.3c0,18.7,0,37.5,0,56.2c0,0.7,0,1.5,0,2.4c-5.7,0-11.3,0-17,0
		c0-0.8,0-1.5,0-2.2c0-18.8,0-37.6,0-56.4c0-0.8-0.1-1.5-0.1-2.3C464.1,210,469.8,210,475.6,210z"/>
	<path class="st0" d="M450.2,210c0,19.5,0,39,0,58.4c0,0.8,0,1.5,0,2.4c-5.6,0-11.1,0-16.9,0c0-20.3,0-40.6,0-60.8
		C438.9,210,444.6,210,450.2,210z"/>
	<path class="st0" d="M147.6,228.7c4.6,0,9,0,13.5,0c0.1,0,0.2,0,0.4,0c2.9-0.3,5.8-0.4,5.7,4.2c1-0.7,1.6-1.1,2.2-1.5
		c5.7-3.9,11.8-5.2,18.3-2.5c6.3,2.6,9.2,7.8,9.3,14.5c0.1,8.8,0,17.6,0,26.4c0,0.3-0.1,0.7-0.2,1.1c-6,0-12,0-18.3,0
		c0-0.7,0-1.4,0-2.1c0-8.2,0-16.3,0-24.5c0-0.6,0-1.2,0-1.8c-0.2-2.2-0.6-4.3-3-5.1c-2.5-0.9-4.9-0.7-6.9,1.2
		c-2.1,2-2.7,4.5-2.7,7.2c0,7.6,0,15.3,0,22.9c0,0.6,0,1.3,0,2.1c-6.2,0-12.2,0-18.4,0C147.6,256.8,147.6,242.9,147.6,228.7z"/>
	<path class="st0" d="M115.7,273.9c-7,0-13.2-2.2-18.3-7c-10.7-9.9-9.7-26,1.9-34.8c9.5-7.2,23-7.2,32.5-0.2
		c13.7,10.1,12.5,29.8-2.4,38.4C125.4,272.7,120.8,273.9,115.7,273.9z M109.3,250.2c0,3.6,0,7.2,0,10.7c0,0.7,0,1.4,0.2,2.1
		c0.8,3,3.5,4.9,6.7,4.8c3-0.1,5.5-2.4,6-5.5c0.1-0.8,0.2-1.6,0.2-2.5c0-6.8,0.1-13.6,0-20.4c-0.1-4-2.9-6.9-6.5-6.9
		c-3.7,0-6.5,3-6.5,7.1C109.3,243.2,109.3,246.7,109.3,250.2z"/>
	<path class="st0" d="M426.4,253.6c-10.6,0-21.1,0-31.7,0c0,3.1-0.3,6.2,0.1,9.1c0.5,3.9,3.7,6,7.6,5.6c6.2-0.5,11.2-3,15.1-7.9
		c0.3-0.4,1.1-0.6,1.6-0.5c1.5,0.4,2.9,1,4.5,1.7c-0.9,1.2-1.6,2.2-2.4,3.2c-10.2,11.9-29.9,12-40.2,0.2c-7.8-9-7.6-21.7,0.6-30.4
		c11.7-12.3,33.1-10.3,41.8,3.9C426.3,243.2,427.4,248.6,426.4,253.6z M401.1,247.7c1.8,0,3.5,0,5.3,0c0.9,0,1.3-0.3,1.3-1.2
		c0-2.6,0.1-5.2-0.1-7.7c-0.2-3.5-3.1-6.2-6.5-6.2c-3.4,0-6.4,2.7-6.6,6.3c-0.1,2.5,0,5,0,7.6c0,1,0.3,1.4,1.3,1.3
		C397.6,247.7,399.3,247.7,401.1,247.7z"/>
	<path class="st0" d="M253.8,253.6c-10.7,0-21.2,0-32.1,0c0.1,3.3,0,6.5,0.5,9.6c0.5,3.3,3.7,5.3,7,5.1c6.3-0.4,11.6-2.8,15.5-7.8
		c0.6-0.7,1-0.9,1.9-0.5c1.3,0.6,2.7,1,4.6,1.7c-2,2.1-3.6,4.2-5.5,5.9c-9.6,8.1-24.1,8.3-34,0.6c-11.9-9.3-12-26.3-0.2-35.8
		c11.6-9.3,29.5-7.3,38.2,4.5c3.2,4.4,4.7,9.3,4.5,14.7C254.1,252.2,254,252.9,253.8,253.6z M234.9,247.7c0-2.9,0-5.6,0-8.3
		c0-3.8-2.7-6.7-6.3-6.8c-3.4-0.1-6.4,2.5-6.7,6.1c-0.2,2.6-0.1,5.3,0,7.9c0,0.4,0.6,1,1,1C226.8,247.8,230.7,247.7,234.9,247.7z"/>
</g>
</svg>
