<?xml version="1.0" encoding="utf-8"?>
<!-- Generator: Adobe Illustrator 16.0.0, SVG Export Plug-In . SVG Version: 6.00 Build 0)  -->
<!DOCTYPE svg PUBLIC "-//W3C//DTD SVG 1.1//EN" "http://www.w3.org/Graphics/SVG/1.1/DTD/svg11.dtd">
<svg version="1.1" id="Layer_1" xmlns="http://www.w3.org/2000/svg" xmlns:xlink="http://www.w3.org/1999/xlink" x="0px" y="0px"
	 viewBox="500 0 750 875" style="enable-background:new 0 0 500 500;" xml:space="preserve">
<g>
	<path fill="#004D81" d="M920.884,507.139h4.568v14.339h0.105c1.504-3.064,5.049-4.397,8.861-4.397
		c8.543,0,12.786,6.763,12.786,14.6c0,7.852-4.187,14.469-12.673,14.469c-2.854,0-6.934-1.089-8.975-4.357h-0.105v3.707h-4.568
		V507.139z M933.776,521.104c-6.121,0-8.494,5.26-8.494,10.479c0,5.479,2.479,10.519,8.763,10.519c6.234,0,8.332-5.3,8.332-10.747
		C942.377,526.152,939.687,521.104,933.776,521.104"/>
	<path fill="#004D81" d="M963.463,549.205c-2.097,5.422-3.976,7.413-8.063,7.413c-1.073,0-2.146-0.113-3.17-0.487v-4.194
		c0.861,0.269,1.771,0.649,2.689,0.649c1.879,0,2.902-0.91,3.756-2.52l1.887-4.73l-11.016-27.614h5.154l8.112,22.721h0.122
		l7.779-22.721h4.836L963.463,549.205z"/>
	<path fill="#1A171B" d="M622.825,417.469c1.557-1.902,3.987-3.122,6.418-3.122c4.495,0,8.315,3.813,8.315,8.324
		c0,1.902-0.516,3.642-1.739,5.023l-0.175,0.171l-41.929,56.496c-4.162,5.373-10.746,9.007-18.196,9.007
		c-6.934,0-13.352-3.292-17.505-8.495l-42.111-56.316c-1.382-1.561-2.422-3.642-2.422-5.885c0-4.512,3.813-8.324,8.316-8.324
		c2.605,0,5.028,1.22,6.584,3.301l40.38,53.886c1.557,1.91,4.154,4.674,6.759,4.674c2.597,0,5.194-2.942,6.584-4.674
		L622.825,417.469z"/>
	<path fill="#1A171B" d="M720.302,414.347h61.426c4.503,0,8.299,3.813,8.299,8.316s-3.796,8.316-8.299,8.316h-61.426V414.347z
		 M720.302,489.897h198.493c12.827,0,23.216-10.047,23.216-22.865c0-12.828-10.389-23.225-23.216-23.225h-95.839
		c-3.463,0-6.584-2.942-6.584-6.422c0-3.633,3.121-6.405,6.584-6.405h105.545c4.504,0,8.315-3.813,8.315-8.316
		s-3.812-8.316-8.315-8.316H823.306c-12.836,0-23.037,10.227-23.037,23.037c0,12.844,10.201,23.054,23.037,23.054h96.18
		c3.472,0,6.414,2.942,6.414,6.593c0,3.463-2.942,6.234-6.414,6.234H720.302V489.897z M720.302,460.439v-16.632h57.613
		c4.494,0,8.315,3.813,8.315,8.324c0,4.503-3.821,8.308-8.315,8.308H720.302z M658.872,414.347h61.43v16.632h-61.43
		c-4.512,0-8.316-3.813-8.316-8.316S654.36,414.347,658.872,414.347 M720.302,443.806v16.632h-53.114v8.503
		c0,2.243,2.255,4.324,5.377,4.324h47.737v16.631h-48.615c-10.218,0-21.131-9.006-21.131-22.695V451.61
		c0-6.243,3.463-7.804,11.088-7.804H720.302z"/>
	<path fill="#1A171B" d="M1090.866,422.672c0,4.503-3.813,8.308-8.316,8.308h-51.293v50.611c0,4.503-3.813,8.307-8.315,8.307
		c-4.511,0-8.315-3.804-8.315-8.307v-50.611h-51.992c-4.154-0.342-7.617-3.983-7.617-8.308c0-4.52,3.805-8.324,8.316-8.324h119.217
		C1087.054,414.347,1090.866,418.152,1090.866,422.672"/>
	<path fill="#1A171B" d="M1096.931,486.783c-1.562,1.911-3.992,3.113-6.422,3.113c-4.504,0-8.324-3.804-8.324-8.315
		c0-1.91,0.536-3.634,1.739-5.031l42.124-56.659c3.982-5.365,10.746-9.015,18.191-9.015c6.934,0,13.519,3.121,17.502,8.495
		l42.107,56.316c1.39,1.561,2.43,3.643,2.43,5.894c0,4.512-3.813,8.315-8.323,8.315c-2.602,0-5.024-1.202-6.585-3.283
		l-40.375-53.895c-1.561-1.902-4.154-4.682-6.756-4.682c-2.593,0-5.193,2.942-6.584,4.682L1096.931,486.783z"/>
	<path fill="#D4ECF9" d="M320.64,449.009l-7.734-3.349c4.43-15.852,14.884-53.24,20.229-72.151c3.081-1.435,6.353-2.731,9.832-3.865
		C342.608,370.35,320.64,449.009,320.64,449.009"/>
	<path fill="#5EC4EC" d="M343.356,412.047l2.114-50.76c0,0,2.963-0.305,7.925-0.305c18.944,0,67.067,4.52,90.206,48.114
		c-0.073-0.032-0.476-0.032-1.174-0.032c-1.598,0-4.743,0.048-8.979,0.154c-21.578-29.219-57.654-32.483-72.68-32.483
		c-4.316,0-6.905,0.276-6.905,0.276l-1.443,34.726C346.811,411.926,343.356,412.047,343.356,412.047"/>
	<path fill="#5EC4EC" d="M393.36,441.302l-4.719-12.307c0,0,5.983-1.415,13.726-3.284l4.711,12.283
		C402.201,439.189,397.364,440.344,393.36,441.302"/>
	<path fill="#22519B" d="M400.412,420.639l41.579,108.3c0,0,44.481-51.252,17.404-123.298
		C461.817,406.137,400.412,420.639,400.412,420.639"/>
	<path fill="#5EC4EC" d="M332.484,540.938c-4.678-1.381-9.523-3.178-14.518-5.471l24.797-19.151
		c5.877,1.391,11.421,1.976,16.591,1.976c0.841,0,1.691-0.008,2.512-0.057L332.484,540.938z"/>
	<path fill="#22519B" d="M314.832,554.571l87.035-67.209l29.492,52.69C431.359,540.052,385.418,586.963,314.832,554.571"/>
	<path fill="#5EC4EC" d="M310.967,452.61l-9.673-6.69l1.333-4.714l10.279,4.446C311.914,449.204,311.223,451.676,310.967,452.61
		 M318.274,382.483l3.739-14.375c4.41-2.264,9.198-4.28,14.4-5.967c-0.102,0.175-1.35,4.576-3.272,11.368
		C327.566,376.114,322.636,379.162,318.274,382.483"/>
	<path fill="#2EBBE9" d="M312.906,445.66l-10.279-4.455l5.759-20.419l-0.057-0.049l9.945-38.25
		c4.361-3.321,9.292-6.369,14.868-8.975C327.79,392.416,317.336,429.808,312.906,445.66"/>
	<path fill="#5EC4EC" d="M287.727,401.838l-1.463-1.35L287.727,401.838z"/>
	<path fill="#22519B" d="M328.887,341.668c0,0-35.1,10.23-57.401,45.233l36.832,33.853L328.887,341.668z"/>
	<path fill="#746880" d="M284.869,444.619l-31.922-13.819c3.561-17.721,10.312-32.109,18.477-43.92l14.835,13.615
		c-12.026,18.363-14.774,35.491-14.774,35.491l13.185,5.714C284.719,442.693,284.784,443.66,284.869,444.619"/>
	<path fill="#35607F" d="M301.297,445.92l-16.688-11.559c-0.085,2.52-0.061,4.966,0.057,7.348l-13.185-5.707
		c0,0,2.748-17.144,14.774-35.515l1.475,1.35l7.873,7.234c-7.491,13.607-9.332,25.053-9.332,25.053l16.359,7.081L301.297,445.92z"/>
	<path fill="#255E7F" d="M302.626,441.205l-16.355-7.088c0,0,1.837-11.445,9.328-25.037l12.722,11.673l0.008-0.016l0.049,0.041
		L302.626,441.205z"/>
	<polygon fill="#213B6B" points="308.317,420.753 295.607,409.072 287.723,401.838 308.325,420.737 	"/>
	<path fill="#D4ECF9" d="M352.025,421.241l0.39-9.503c18.696-0.626,61.414-2.04,81.024-2.52c0.711,0.951,1.402,1.942,2.065,2.951
		c-11.271,2.78-23.671,5.755-30.296,7.332C380.708,420.249,352.025,421.241,352.025,421.241"/>
	<path fill="#2EBBE9" d="M352.42,411.738l1.438-34.726c0,0,2.589-0.276,6.91-0.276c15.034,0,51.11,3.264,72.676,32.483
		C413.833,409.698,371.116,411.112,352.42,411.738"/>
	<path fill="#0063AA" d="M405.208,419.501c6.617-1.577,19.029-4.544,30.3-7.332c1.362,2.048,2.646,4.21,3.861,6.487
		c-0.069-0.017-0.427-0.033-1.041-0.033C434.492,418.623,420.682,419.013,405.208,419.501"/>
	<path fill="#D4ECF9" d="M333.39,484.865l-47.545-32.938c-0.427-2.35-0.76-4.788-0.976-7.308l14.974,6.478l0.711-2.512l10.295,4.455
		c0,0,0.032-0.146,0.118-0.431l31.446,21.793L333.39,484.865z"/>
	<path fill="#2EBBE9" d="M310.845,453.041l-10.295-4.455l0.748-2.666l9.666,6.698C310.877,452.886,310.845,453.041,310.845,453.041"
		/>
	<path fill="#5B7994" d="M299.843,451.097l-14.974-6.478c-0.085-0.959-0.15-1.926-0.203-2.91l15.884,6.876L299.843,451.097z"/>
	<path fill="#007092" d="M300.55,448.586l-15.884-6.876c-0.114-2.382-0.138-4.829-0.057-7.348l16.688,11.559L300.55,448.586z"/>
	<path fill="#D4ECF9" d="M342.763,516.316c-5.162-1.211-10.58-3.04-16.241-5.642l57.296-43.31l14.091,23.045l-2.987,2.316
		l-6.52-11.648L342.763,516.316z"/>
	<path fill="#2EBBE9" d="M359.35,518.291c-5.17,0-10.714-0.577-16.591-1.976l45.643-35.238l6.515,11.648l-33.052,25.517
		C361.041,518.283,360.199,518.291,359.35,518.291"/>
	<path fill="#0063AA" d="M361.865,518.242l33.056-25.517l2.995-2.316l6.467,10.567C404.383,500.977,388.442,517.259,361.865,518.242
		"/>
	<path fill="#D4ECF9" d="M422.34,523.957l-20.477-36.596l-1,0.764l-17.095-44.539c0,0,3.951-0.935,9.596-2.284l28.816,75.071
		c0,0,4.536-5.219,9.397-14.559l0.707,1.853C429.131,512.381,425.327,519.275,422.34,523.957"/>
	<path fill="#2EBBE9" d="M422.181,516.381l-28.816-75.079c4.003-0.959,8.84-2.121,13.717-3.316l24.496,63.829
		C426.717,511.162,422.181,516.381,422.181,516.381"/>
	<path fill="#0063AA" d="M432.29,503.667l-0.708-1.853l-24.504-63.829c11.734-2.861,23.655-5.869,24.305-6.414
		C442.394,460.959,438.675,486.044,432.29,503.667"/>
	<path fill="#0063AA" d="M417.308,530.964l-16.449-42.839l1.008-0.764l20.468,36.596
		C419.438,528.509,417.308,530.964,417.308,530.964"/>
	<path fill="#0063AA" d="M431.383,431.573c-0.008-0.024-0.016-0.048-0.032-0.073C431.407,431.508,431.424,431.54,431.383,431.573"/>
	<path fill="#5EC4EC" d="M310.849,523.779c0,0-41.872-27.524-39.929-82.2l14.924,10.356c6.117,33.857,32.027,50.887,32.027,50.887
		l15.518-17.957l6.926,4.796L310.849,523.779z"/>
	<path fill="#2EBBE9" d="M317.872,502.823c0,0-25.902-17.038-32.031-50.895l47.549,32.938L317.872,502.823z"/>
	<path fill="#22519B" d="M251.013,447.237l86.535,59.942l-36.742,42.555C300.806,549.734,248.59,515.398,251.013,447.237"/>
	<path fill="#22519B" d="M342.873,340.38c0,0,78.813-8.214,112.173,54.63c-1.447-0.484-114.588,3.397-114.588,3.397L342.873,340.38z
		"/>
	<path fill-rule="evenodd" clip-rule="evenodd" fill="#1A171B" d="M1223.374,417.274c2.219-0.049,3.756-0.439,4.601-1.138
		c0.935-0.748,1.406-1.756,1.406-3.007c0-0.813-0.22-1.528-0.683-2.163c-0.455-0.634-1.073-1.122-1.861-1.422
		c-0.684-0.269-1.829-0.415-3.463-0.455v-3.618c2.642,0.033,4.576,0.285,5.836,0.715c1.432,0.512,2.553,1.382,3.398,2.626
		c0.854,1.243,1.268,2.561,1.268,3.958c0,1.959-0.707,3.674-2.113,5.137c-1.414,1.463-3.292,2.284-5.633,2.471
		c0.959,0.39,1.723,0.87,2.309,1.431c1.08,1.057,2.422,2.853,3.99,5.365l3.301,5.284h-5.283l-2.432-4.26
		c-1.91-3.333-3.422-5.43-4.568-6.283l-0.072-0.057V417.274z M1223.374,443.579l0.674,0.017c4.333,0,8.486-1.106,12.462-3.301
		c3.967-2.211,7.056-5.3,9.259-9.275c2.195-3.991,3.301-8.137,3.301-12.445c0-4.357-1.122-8.536-3.35-12.551
		c-2.244-4.016-5.357-7.104-9.364-9.247c-4.007-2.174-8.112-3.247-12.308-3.247l-0.674,0.008v4.154l0.674-0.008
		c3.496,0,6.91,0.898,10.242,2.707c3.357,1.805,5.951,4.382,7.82,7.723c1.861,3.365,2.797,6.844,2.797,10.462
		c0,3.593-0.91,7.056-2.748,10.372c-1.846,3.3-4.414,5.869-7.723,7.723c-3.324,1.853-6.787,2.78-10.389,2.78l-0.674-0.016V443.579z
		 M1217.366,417.29h5.357l0.65-0.016v4.584c-0.797-0.585-1.943-0.878-3.439-0.87h-2.568v11.47h-4.34v-27.004h9.299l1.049,0.016
		v3.618l-0.984-0.017h-5.023V417.29z M1223.374,393.538c-3.967,0.11-7.853,1.191-11.633,3.239c-4.008,2.142-7.121,5.231-9.381,9.247
		c-2.234,4.016-3.357,8.194-3.357,12.551c0,4.308,1.114,8.454,3.317,12.445c2.211,3.975,5.3,7.064,9.267,9.275
		c3.771,2.081,7.698,3.179,11.787,3.284v-4.146c-3.365-0.106-6.593-1.024-9.697-2.764c-3.317-1.854-5.902-4.422-7.756-7.723
		c-1.846-3.316-2.764-6.779-2.764-10.372c0-3.618,0.943-7.097,2.82-10.462c1.87-3.341,4.471-5.918,7.813-7.723
		c3.113-1.69,6.3-2.589,9.584-2.699V393.538z"/>
	<path fill-rule="evenodd" clip-rule="evenodd" fill="#004D81" d="M1086.688,516.511c0,1.105-0.032,2.04,0.017,2.959
		c0.016,0.39,0.203,0.78,0.316,1.162c0.334-0.22,0.74-0.382,0.992-0.666c1.422-1.585,3.04-2.935,5.137-3.479
		c3.878-1.016,7.715-1.211,11.129,1.414c0.724,0.562,1.35,1.357,1.82,2.154c0.537,0.895,0.936,0.732,1.488,0.114
		c1.455-1.594,3.057-3.04,5.186-3.658c3.732-1.073,7.39-1.13,10.795,1.138c2.22,1.464,3.374,3.699,3.488,6.178
		c0.275,5.52,0.235,11.039,0.293,16.567c0.023,1.967,0.008,3.926,0.008,5.982h-10.471c-0.845,0-0.617-0.65-0.617-1.089
		c-0.017-5.463,0.049-10.926-0.057-16.371c-0.017-0.992-0.472-2.114-1.065-2.927c-1.894-2.577-5.284-1.788-6.616,0.553
		c-0.699,1.235-1.065,2.804-1.105,4.227c-0.131,5.179-0.049,10.364-0.049,15.624c-3.512,0-7.023,0.016-10.535-0.041
		c-0.188,0-0.529-0.577-0.537-0.886c-0.049-2.521-0.023-5.032-0.023-7.544v-9.526c0-1.911-1.041-3.162-2.927-3.878
		c-1.479-0.545-3.78,0.325-4.438,1.569c-0.635,1.202-1.195,2.617-1.244,3.95c-0.121,5.04-0.064,10.063-0.041,15.104
		c0,0.854-0.048,1.26-1.17,1.211c-3.089-0.122-6.193-0.049-9.291-0.008c-0.666,0.008-0.984-0.008-0.691-0.78
		c0.098-0.269,0.033-0.61,0.033-0.919v-26.248c0-1.886-0.008-1.886,1.959-1.886H1086.688"/>
	<path fill-rule="evenodd" clip-rule="evenodd" fill="#004D81" d="M1031.176,516.853c-2.26,0.528-4.251,1.008-6.251,1.431
		c-1.268,0.309-2.553,0.496-3.805,0.837c-0.756,0.203-1.057,0.065-1.365-0.683c-1.293-3.203-3.805-4.91-7.178-4.959
		c-3.779-0.073-7.178,2.284-8.063,6.357c-0.545,2.471-0.528,5.097-0.528,7.648c0.008,1.658,0.342,3.342,0.699,4.975
		c0.609,2.813,3.162,4.861,6.023,5.219c5.787,0.716,7.998-2.292,9.355-6.227c0.188-0.536,0.366-1.072,0.586-1.723
		c1.959,0.602,3.91,1.179,5.844,1.764c1.464,0.431,2.927,0.829,4.357,1.325l0.406,0.821c-1.365,5.242-4.072,9.551-9.226,11.713
		c-1.968,0.829-4.171,1.22-6.3,1.488c-1.951,0.235-3.967,0.154-5.959,0.032c-5.048-0.269-9.665-1.65-13.145-5.625
		c-2.738-3.122-4.527-6.723-4.885-10.885c-0.236-2.683-0.391-5.405-0.22-8.088c0.284-4.772,1.821-9.153,5.3-12.608
		c2.927-2.91,6.576-4.373,10.592-5.007c5.049-0.797,10.007-0.504,14.762,1.446c2.724,1.139,4.846,3.122,6.357,5.642
		C1029.469,513.309,1030.208,514.967,1031.176,516.853"/>
	<path fill-rule="evenodd" clip-rule="evenodd" fill="#004D81" d="M1134.42,524.762c0.765-4.008,2.585-6.682,7.187-7.958
		c3.649-0.992,7.413-1.235,11.201-0.862c2.072,0.188,4.186,0.293,6.234,0.716c4.04,0.805,6.275,3.503,7.105,7.446
		c0.154,0.748,0.235,1.527,0.243,2.284c0.017,4.292-0.008,8.592,0.017,12.892c0,1.195,0.041,2.391,0.244,3.561
		c0.203,1.146,0.617,2.244,0.967,3.471c-0.195,0.033-0.488,0.098-0.772,0.098c-2.666,0-5.341,0-8.015,0
		c-1.479,0-2.081-0.544-2.373-2.016c-0.09-0.512-0.221-1.008-0.391-1.756c-0.838,0.667-1.488,1.22-2.179,1.707
		c-2.243,1.577-4.771,2.26-7.479,2.602c-2.341,0.293-4.577,0.057-6.788-0.537c-2.568-0.683-4.625-2.187-5.592-4.689
		c-1.439-3.699-0.65-8.82,4.146-10.527c2.706-0.951,5.593-1.414,8.38-2.13c2.732-0.699,5.471-1.414,8.17-2.211
		c0.357-0.105,0.724-0.739,0.772-1.179c0.154-1.228-1.008-3.023-2.503-3.227c-2.171-0.31-4.269-0.374-6.154,0.902
		c-0.553,0.365-1.057,0.926-1.333,1.52c-0.366,0.764-0.862,0.967-1.626,0.887c-2.73-0.317-5.471-0.618-8.21-0.902
		C1135.282,524.803,1134.899,524.803,1134.42,524.762 M1155.53,534.11c0-0.35-0.008-0.69,0.008-1.04
		c0.025-0.886-0.203-1.195-1.146-0.765c-0.927,0.391-1.959,0.562-2.919,0.887c-1.756,0.585-3.576,1.072-5.218,1.886
		c-1.772,0.878-2.163,2.568-1.261,4.146c0.822,1.431,2.423,2.016,4.577,1.699C1153.474,540.321,1155.71,537.776,1155.53,534.11"/>
	<path fill-rule="evenodd" clip-rule="evenodd" fill="#004D81" d="M1171.366,516.511c4.445,0,8.575-0.017,12.721,0.032
		c0.366,0,0.87,0.423,1.064,0.797c1.244,2.146,2.423,4.333,3.609,6.512c0.569,1.04,0.854,1.064,1.545,0.057
		c1.545-2.268,3.081-4.544,4.666-6.796c0.188-0.269,0.553-0.569,0.838-0.577c3.877-0.032,7.73-0.024,11.786-0.024
		c-0.991,1.39-1.894,2.618-2.796,3.878c-2.105,2.918-4.211,5.828-6.309,8.754c-1.072,1.513-1.072,1.528,0.18,3.342
		c2.99,4.349,5.99,8.682,8.99,13.03c0.17,0.243,0.365,0.463,0.699,0.886h-1.277c-3.561,0-7.12-0.024-10.689,0.024
		c-0.771,0-1.252-0.187-1.649-0.91c-1.423-2.618-2.927-5.202-4.397-7.796c-0.602-1.064-0.846-1.098-1.545-0.09
		c-1.731,2.504-3.495,4.992-5.154,7.561c-0.568,0.861-1.146,1.252-2.219,1.235c-3.486-0.073-6.958-0.024-10.682-0.024
		c0.984-1.447,1.854-2.764,2.756-4.057c2.586-3.682,5.195-7.364,7.739-11.087c0.187-0.269,0.105-0.96-0.114-1.269
		c-2.357-3.3-4.764-6.56-7.152-9.836C1173.153,519.015,1172.349,517.885,1171.366,516.511"/>
	<path fill-rule="evenodd" clip-rule="evenodd" fill="#004D81" d="M1048.954,546.262c-3.463,0-6.828-0.048-10.178,0.033
		c-0.683,0.016-0.82-0.122-0.82-0.683v-0.699c0-12.844,0.008-25.688-0.018-38.53c-0.008-1.057,0.106-1.383,1.334-1.334
		c3.194,0.171,6.396,0.065,9.682,0.065V546.262"/>
	<rect x="1057.578" y="516.601" fill-rule="evenodd" clip-rule="evenodd" fill="#004D81" width="10.917" height="29.759"/>
	<rect x="1057.53" y="504.985" fill-rule="evenodd" clip-rule="evenodd" fill="#004D81" width="10.941" height="7.43"/>
</g>
</svg>
