<?xml version="1.0" encoding="utf-8"?>
<!-- Generator: Adobe Illustrator 16.0.0, SVG Export Plug-In . SVG Version: 6.00 Build 0)  -->
<!--<!DOCTYPE svg PUBLIC "-//W3C//DTD SVG 1.1//EN" "http://www.w3.org/Graphics/SVG/1.1/DTD/svg11.dtd">-->
<svg version="1.1" id="Layer_1" xmlns="http://www.w3.org/2000/svg" xmlns:xlink="http://www.w3.org/1999/xlink" x="0px" y="0px"
	 viewBox="0 -150 750 875" style="enable-background:new 0 0 500 500;" xml:space="preserve">
<g>
	<g>
		<path fill="#009D4E" d="M216.811,235.042c-2.285-1.813-6.53-2.719-12.742-2.719h-43.223c-6.206,0-10.762,0.905-13.65,2.719
			c-2.892,1.808-4.766,5.48-5.628,11.001l-12.027,75.818c-0.177,1.041,0.081,1.946,0.772,2.722c0.688,0.774,1.553,1.159,2.585,1.159
			h12.609l5.121-32.347h44.383l-5.171,32.347h12.679c1.026,0,2.001-0.385,2.909-1.159c0.905-0.775,1.399-1.681,1.486-2.722
			l12.036-75.818C219.807,240.522,219.095,236.85,216.811,235.042z M201.737,251.09l-4.401,27.427h-44.38l4.396-27.427
			c0.267-1.813,0.74-2.912,1.429-3.303c0.688-0.387,2.241-0.584,4.656-0.584h33.515c2.328,0,3.771,0.197,4.335,0.584
			C201.845,248.177,201.995,249.277,201.737,251.09z"/>
		<path fill="#009D4E" d="M548.444,257.299c-2.29-1.81-6.529-2.718-12.741-2.718H486.4c-1.035,0-2.024,0.387-2.973,1.165
			c-0.954,0.778-1.469,1.681-1.556,2.719l-1.851,10.998h48.301c2.331,0,3.795,0.194,4.407,0.575c0.596,0.396,0.77,1.496,0.51,3.303
			l-1.29,7.893h-38.307c-6.206,0-10.759,0.905-13.645,2.715c-2.892,1.816-4.771,5.483-5.628,11.001l-2.719,17.08
			c-0.861,5.521-0.133,9.188,2.204,10.998c2.325,1.811,6.594,2.716,12.806,2.716h54.728l9.19-57.449
			C551.44,262.773,550.729,259.109,548.444,257.299z M527.113,310.864h-33.338c-2.418,0-3.904-0.194-4.465-0.579
			c-0.556-0.387-0.706-1.488-0.451-3.302l1.168-6.981c0.341-1.816,0.839-2.915,1.486-3.303c0.642-0.391,2.175-0.584,4.593-0.584
			h33.518L527.113,310.864z"/>
		<path fill="#009D4E" d="M623.473,254.58h-42.83c-6.206,0-10.764,0.908-13.645,2.718c-2.897,1.811-4.771,5.475-5.633,10.995
			l-6.993,43.735c-0.861,5.521-0.121,9.188,2.204,10.998c2.337,1.811,6.6,2.716,12.812,2.716h42.829
			c1.035,0,2.007-0.385,2.909-1.159c0.908-0.775,1.406-1.681,1.492-2.722l1.822-10.998h-41.806c-2.418,0-3.904-0.194-4.46-0.579
			c-0.566-0.387-0.717-1.488-0.457-3.302l5.432-33.643c0.26-1.807,0.717-2.906,1.365-3.303c0.642-0.381,2.169-0.575,4.58-0.575
			h41.795l1.816-10.998c0.173-1.038-0.063-1.94-0.712-2.719C625.353,254.968,624.508,254.58,623.473,254.58z"/>
		<path fill="#009D4E" d="M705.75,257.299c-2.285-1.81-6.53-2.718-12.742-2.718h-37.78c-6.212,0-10.765,0.908-13.65,2.718
			c-2.892,1.811-4.771,5.475-5.634,10.995l-6.986,43.735c-0.862,5.521-0.128,9.188,2.203,10.998s6.6,2.716,12.806,2.716h47.497
			c1.024,0,2.002-0.385,2.91-1.159c0.902-0.775,1.394-1.681,1.48-2.722l1.793-10.998H653.29c-3.286,0-5.333-0.194-6.148-0.579
			c-0.821-0.387-1.105-1.488-0.845-3.302l1.423-8.798h38.307c6.206,0,10.752-0.902,13.645-2.715
			c2.892-1.808,4.766-5.483,5.634-10.998l2.579-16.178C708.75,262.773,708.04,259.109,705.75,257.299z M690.682,273.34l-1.035,6.082
			c-0.261,1.811-0.758,2.909-1.486,3.3c-0.735,0.39-2.268,0.581-4.599,0.581H650.05l1.683-9.963
			c0.261-1.807,0.712-2.906,1.359-3.303c0.647-0.381,2.181-0.575,4.587-0.575h28.075c2.337,0,3.806,0.194,4.407,0.575
			C690.763,270.434,690.936,271.533,690.682,273.34z"/>
		<path fill="#009D4E" d="M243.226,254.58h-12.754l-11.174,71.162h12.672c1.032,0,2.004-0.385,2.909-1.159
			c0.908-0.775,1.4-1.681,1.492-2.722l7.86-49.377l0.006,0.009l1.97-12.441l0.258-1.588c0.167-1.038-0.064-1.94-0.712-2.719
			C245.103,254.968,244.267,254.58,243.226,254.58z"/>
		<path fill="#009D4E" d="M235.724,247.203h8.67c1.03,0,2.007-0.385,2.912-1.16c0.899-0.784,1.397-1.686,1.489-2.719l1.16-7.114
			c0.171-1.038-0.063-1.943-0.709-2.721c-0.647-0.775-1.489-1.166-2.527-1.166h-8.67c-1.035,0-2.007,0.391-2.906,1.166
			c-0.905,0.778-1.449,1.683-1.622,2.721l-1.163,7.114c-0.168,1.033,0.087,1.935,0.775,2.719
			C233.821,246.818,234.688,247.203,235.724,247.203z"/>
		<path fill="#009D4E" d="M261.329,257.299c-2.886,1.811-4.769,5.475-5.628,10.995l-9.185,57.449h12.809
			c1.032,0,2.004-0.385,2.912-1.159c0.908-0.775,1.399-1.681,1.483-2.722l7.762-48.521c0.27-1.807,0.718-2.906,1.368-3.303
			c0.642-0.381,2.175-0.575,4.593-0.575h15.351c1.041,0,2.026-0.394,2.981-1.168c0.945-0.772,1.46-1.68,1.547-2.715l1.819-10.998
			h-24.16C268.772,254.58,264.215,255.489,261.329,257.299z"/>
		<path fill="#009D4E" d="M380.223,274.378c-2.29-1.81-6.538-2.721-12.753-2.721h-38.426c-2.421,0-3.901-0.194-4.465-0.578
			c-0.559-0.391-0.709-1.492-0.451-3.3l2.713-16.689c0.263-1.813,0.731-2.912,1.426-3.303c0.69-0.387,2.244-0.584,4.655-0.584
			h55.208l0.179-1.16c0.862-5.521,0.145-9.193-2.14-11.001c-2.285-1.813-6.53-2.719-12.742-2.719H330.47
			c-6.212,0-10.77,0.905-13.652,2.719c-2.89,1.808-4.77,5.48-5.631,11.001l-4.271,26.782c-0.859,5.521-0.15,9.188,2.134,10.995
			c2.291,1.813,6.533,2.722,12.751,2.722h38.295c2.337,0,3.8,0.19,4.401,0.581c0.602,0.388,0.775,1.489,0.516,3.3l-2.713,16.56
			c-0.258,1.813-0.731,2.915-1.423,3.302c-0.688,0.385-2.204,0.579-4.529,0.579h-55.317l-0.193,1.165
			c-0.864,5.521-0.13,9.188,2.201,10.998c2.33,1.811,6.599,2.716,12.808,2.716h43.091c6.209,0,10.737-0.905,13.586-2.716
			c2.846-1.811,4.694-5.477,5.562-10.998l4.269-26.649C383.216,279.856,382.508,276.189,380.223,274.378z"/>
		<path fill="#009D4E" d="M465.694,257.299c-2.29-1.81-6.536-2.718-12.748-2.718h-54.862l-16.739,104.261h12.699h0.104
			c1.035,0,2.004-0.391,2.909-1.172c0.865-0.734,1.345-1.59,1.464-2.57c0.012-0.044,0.043-0.093,0.052-0.142l4.815-29.215h38.297
			c6.212,0,10.74-0.905,13.586-2.716s4.702-5.477,5.564-10.998l6.993-43.735C468.684,262.773,467.973,259.109,465.694,257.299z
			 M450.616,273.34l-5.432,33.643c-0.266,1.813-0.734,2.915-1.429,3.302c-0.688,0.385-2.192,0.579-4.528,0.579h-33.514l6.6-41.401
			h33.386c2.331,0,3.795,0.194,4.401,0.575C450.708,270.434,450.875,271.533,450.616,273.34z"/>
		<path fill="#009D4E" d="M727.172,235.609c2.152,2.183,3.233,4.8,3.233,7.846s-1.087,5.657-3.25,7.829
			c-2.164,2.184-4.772,3.268-7.814,3.268c-3.048,0-5.656-1.084-7.831-3.268c-2.181-2.172-3.269-4.783-3.269-7.829
			c0-3.109,1.088-5.744,3.269-7.898c2.175-2.154,4.829-3.233,7.958-3.233C722.453,232.323,725.015,233.417,727.172,235.609z
			 M710.272,243.455c0,2.525,0.879,4.676,2.655,6.463c1.775,1.782,3.909,2.678,6.414,2.678c2.481,0,4.599-0.896,6.362-2.678
			c1.764-1.787,2.644-3.938,2.644-6.463c0-2.501-0.874-4.65-2.626-6.449c-1.753-1.793-3.847-2.687-6.281-2.687
			c-2.568,0-4.737,0.885-6.513,2.658C711.151,238.753,710.272,240.907,710.272,243.455z M721.556,245.153l2.192,3.722
			c0.277,0.457,0.15,0.68-0.394,0.68h-0.983c-0.537,0-0.942-0.234-1.208-0.714l-2.187-3.624h-2.117v3.496
			c0,0.544-0.271,0.816-0.815,0.816h-0.821c-0.538,0-0.815-0.272-0.815-0.816V237.94c0-0.543,0.277-0.815,0.815-0.815h5.553
			c1.301,0,2.232,0.229,2.776,0.686c0.543,0.457,0.815,1.382,0.815,2.773v1.177c0,1.215-0.22,2.071-0.653,2.565
			C723.274,244.811,722.563,245.086,721.556,245.153z M720.544,242.963c0.566,0,0.937-0.084,1.093-0.26
			c0.168-0.176,0.249-0.506,0.249-1.012v-0.943c0-0.506-0.087-0.844-0.266-1.029c-0.168-0.182-0.532-0.278-1.076-0.278h-3.719v3.522
			H720.544z"/>
	</g>
	<g>
		<path fill="#009D4E" d="M432.784,342.041l-2.515,15.958c-0.047,0.231-0.177,0.347-0.394,0.347h-0.463
			c-0.243,0-0.347-0.115-0.295-0.347l2.305-14.599l-8.557,14.622c-0.125,0.214-0.298,0.323-0.532,0.323h-0.364
			c-0.249,0-0.394-0.109-0.44-0.323l-4.129-14.668l-2.306,14.645c-0.046,0.231-0.182,0.347-0.396,0.347h-0.457
			c-0.249,0-0.342-0.115-0.301-0.347l2.516-15.958c0.047-0.231,0.18-0.347,0.411-0.347h0.988c0.234,0,0.382,0.107,0.443,0.321
			l4.197,14.277l8.468-14.277c0.106-0.214,0.28-0.321,0.532-0.321h1.011C432.731,341.695,432.83,341.81,432.784,342.041z"/>
		<path fill="#009D4E" d="M446.896,355.9c-0.15,0.983-0.485,1.637-0.994,1.961c-0.504,0.324-1.313,0.485-2.418,0.485h-6.738
			c-1.104,0-1.862-0.161-2.279-0.485c-0.416-0.324-0.543-0.978-0.388-1.961l0.48-3.042c0.15-0.986,0.486-1.64,1.007-1.961
			c0.509-0.324,1.318-0.486,2.429-0.486h8.601l0.423-2.559c0.028-0.264,0.022-0.466-0.018-0.613
			c-0.041-0.142-0.162-0.272-0.37-0.379c-0.208-0.11-0.515-0.162-0.938-0.162h-9.52c-0.231,0-0.324-0.115-0.278-0.347l0.047-0.342
			c0.046-0.231,0.185-0.347,0.416-0.347h9.133c1.104,0,1.862,0.162,2.273,0.485c0.404,0.318,0.537,0.975,0.376,1.955L446.896,355.9z
			 M444.033,357.305c0.607,0,1.013-0.093,1.238-0.283c0.226-0.196,0.364-0.483,0.422-0.867l0.74-4.708h-9.011
			c-0.602,0-1.019,0.098-1.238,0.289c-0.226,0.196-0.358,0.479-0.428,0.867l-0.55,3.552c-0.069,0.384-0.011,0.671,0.145,0.867
			c0.168,0.19,0.544,0.283,1.146,0.283H444.033z"/>
		<path fill="#009D4E" d="M455.936,352.048l3.459,6.021c0.11,0.183,0.047,0.277-0.185,0.277h-0.579
			c-0.242,0-0.416-0.095-0.526-0.277l-3.181-5.489h-3.089l-0.861,5.42c-0.041,0.231-0.168,0.347-0.388,0.347h-0.457
			c-0.255,0-0.353-0.115-0.307-0.347l2.816-17.757c0.018-0.231,0.146-0.347,0.388-0.347h0.469c0.208,0,0.313,0.115,0.301,0.347
			l-1.805,11.299h3.025l5.142-5.604c0.168-0.185,0.376-0.274,0.625-0.274h0.572c0.22,0,0.249,0.09,0.093,0.274L455.936,352.048z"/>
		<path fill="#009D4E" d="M474.132,357.653l-0.046,0.347c-0.046,0.231-0.174,0.347-0.388,0.347h-8.814
			c-1.104,0-1.868-0.161-2.279-0.485c-0.416-0.324-0.543-0.978-0.393-1.961l1.243-7.797c0.15-0.98,0.485-1.637,1.001-1.955
			c0.521-0.323,1.33-0.485,2.435-0.485h6.738c1.104,0,1.862,0.162,2.268,0.485c0.404,0.318,0.538,0.975,0.382,1.955l-0.457,2.887
			c-0.162,0.982-0.492,1.637-1.001,1.961c-0.521,0.323-1.336,0.482-2.44,0.482h-8.624l-0.411,2.722
			c-0.098,0.338-0.104,0.612-0.011,0.827c0.081,0.22,0.301,0.323,0.653,0.323h9.873
			C474.086,357.305,474.179,357.424,474.132,357.653z M472.941,352.395c0.59,0,1.007-0.099,1.238-0.289
			c0.231-0.191,0.37-0.48,0.416-0.865l0.556-3.389c0.028-0.264,0.022-0.466-0.012-0.613c-0.041-0.142-0.162-0.272-0.37-0.379
			c-0.208-0.11-0.521-0.162-0.932-0.162h-7.548c-0.596,0-1.006,0.099-1.231,0.289c-0.221,0.191-0.359,0.48-0.405,0.865l-0.74,4.543
			H472.941z"/>
		<path fill="#009D4E" d="M495.285,345.986l-9.873,16.646c-0.122,0.214-0.301,0.324-0.532,0.324h-0.434
			c-0.231,0-0.284-0.11-0.162-0.324l2.51-4.286l-3.412-12.36c-0.047-0.219,0.046-0.323,0.277-0.323h0.532
			c0.231,0,0.364,0.104,0.41,0.323l2.974,10.926l6.535-10.926c0.122-0.219,0.301-0.323,0.55-0.323h0.486
			C495.376,345.662,495.417,345.767,495.285,345.986z"/>
		<path fill="#009D4E" d="M508.842,355.9c-0.156,0.983-0.486,1.637-0.989,1.961c-0.509,0.324-1.313,0.485-2.424,0.485h-6.732
			c-1.11,0-1.874-0.161-2.284-0.485c-0.411-0.324-0.544-0.978-0.388-1.961l1.243-7.797c0.15-0.98,0.48-1.637,1.001-1.955
			c0.515-0.323,1.33-0.485,2.429-0.485h6.738c1.11,0,1.862,0.162,2.279,0.485c0.399,0.318,0.526,0.975,0.37,1.955L508.842,355.9z
			 M505.985,357.305c0.602,0,1.012-0.093,1.231-0.283c0.226-0.196,0.364-0.483,0.429-0.867l1.313-8.303
			c0.029-0.264,0.023-0.466-0.012-0.613c-0.034-0.142-0.162-0.272-0.37-0.379c-0.208-0.11-0.515-0.162-0.931-0.162h-7.543
			c-0.602,0-1.012,0.099-1.231,0.289c-0.226,0.191-0.358,0.48-0.405,0.865l-1.313,8.303c-0.063,0.384-0.012,0.671,0.145,0.867
			c0.162,0.19,0.549,0.283,1.145,0.283H505.985z"/>
		<path fill="#009D4E" d="M525.06,355.9c-0.156,0.983-0.486,1.637-0.995,1.961c-0.503,0.324-1.318,0.485-2.418,0.485h-6.738
			c-1.11,0-1.868-0.161-2.278-0.485c-0.422-0.324-0.55-0.978-0.394-1.961l1.562-9.891c0.053-0.231,0.191-0.347,0.423-0.347h0.457
			c0.23,0,0.323,0.115,0.277,0.347l-1.591,10.146c-0.063,0.384-0.012,0.671,0.156,0.867c0.15,0.19,0.538,0.283,1.134,0.283h7.542
			c0.602,0,1.013-0.093,1.238-0.283c0.214-0.196,0.364-0.483,0.428-0.867l1.585-10.146c0.046-0.231,0.185-0.347,0.416-0.347h0.486
			c0.226,0,0.323,0.115,0.277,0.347L525.06,355.9z"/>
		<path fill="#009D4E" d="M530.757,347.852l-1.614,10.147c-0.052,0.231-0.185,0.347-0.398,0.347h-0.457
			c-0.249,0-0.348-0.115-0.301-0.347l1.567-9.896c0.156-0.98,0.485-1.637,1-1.955c0.521-0.323,1.331-0.485,2.441-0.485h5.876
			c0.231,0,0.324,0.115,0.278,0.347l-0.047,0.342c-0.052,0.231-0.19,0.347-0.416,0.347h-6.293c-0.602,0-1.019,0.099-1.238,0.289
			C530.936,347.178,530.797,347.467,530.757,347.852z"/>
		<path fill="#009D4E" d="M556.235,355.9c-0.15,0.983-0.479,1.637-0.988,1.961c-0.51,0.324-1.313,0.485-2.424,0.485H544.8
			c-0.249,0-0.347-0.115-0.295-0.347l0.04-0.347c0.047-0.229,0.186-0.348,0.417-0.348h8.438c0.596,0,1.013-0.093,1.232-0.283
			c0.226-0.196,0.37-0.483,0.434-0.867l0.388-2.539c0.058-0.382,0.012-0.671-0.15-0.862c-0.162-0.19-0.538-0.289-1.14-0.289h-6.392
			c-1.104,0-1.868-0.162-2.272-0.486c-0.405-0.323-0.532-0.971-0.382-1.96l0.301-1.915c0.156-0.98,0.485-1.637,1.012-1.955
			c0.509-0.323,1.319-0.485,2.43-0.485h7.976c0.231,0,0.324,0.115,0.278,0.347l-0.047,0.342c-0.046,0.231-0.185,0.347-0.41,0.347
			h-8.375c-0.602,0-1.013,0.099-1.238,0.289c-0.22,0.191-0.358,0.48-0.399,0.865l-0.393,2.42c-0.059,0.388-0.012,0.677,0.15,0.868
			c0.156,0.19,0.549,0.286,1.162,0.286h6.345c1.105,0,1.862,0.159,2.268,0.482c0.411,0.324,0.538,0.978,0.382,1.961L556.235,355.9z"
			/>
		<path fill="#009D4E" d="M571.898,355.9c-0.15,0.983-0.48,1.637-0.995,1.961c-0.503,0.324-1.313,0.485-2.417,0.485h-8.624
			l-0.694,4.266c-0.034,0.229-0.162,0.345-0.394,0.345h-0.462c-0.231,0-0.33-0.116-0.301-0.345l2.308-14.509
			c0.156-0.98,0.491-1.637,1.006-1.955c0.515-0.323,1.319-0.485,2.436-0.485h6.732c1.104,0,1.862,0.162,2.268,0.485
			c0.41,0.318,0.537,0.975,0.381,1.955L571.898,355.9z M569.041,357.305c0.596,0,1.007-0.093,1.232-0.283
			c0.22-0.196,0.364-0.483,0.428-0.867l1.313-8.303c0.029-0.264,0.023-0.466-0.011-0.613c-0.041-0.142-0.162-0.272-0.37-0.379
			c-0.209-0.11-0.521-0.162-0.932-0.162h-7.548c-0.596,0-1.007,0.099-1.232,0.289c-0.22,0.191-0.353,0.48-0.404,0.865l-1.498,9.453
			H569.041z"/>
		<path fill="#009D4E" d="M587.925,355.9c-0.156,0.983-0.48,1.637-0.995,1.961c-0.503,0.324-1.313,0.485-2.418,0.485h-6.732
			c-1.11,0-1.868-0.161-2.284-0.485s-0.544-0.978-0.394-1.961l0.486-3.042c0.15-0.986,0.491-1.64,1-1.961
			c0.521-0.324,1.331-0.486,2.436-0.486h8.601l0.416-2.559c0.029-0.264,0.029-0.466-0.012-0.613
			c-0.034-0.142-0.161-0.272-0.37-0.379c-0.202-0.11-0.521-0.162-0.931-0.162h-9.526c-0.231,0-0.318-0.115-0.277-0.347l0.046-0.342
			c0.047-0.231,0.186-0.347,0.411-0.347h9.139c1.104,0,1.868,0.162,2.272,0.485c0.399,0.318,0.532,0.975,0.376,1.955L587.925,355.9z
			 M585.062,357.305c0.602,0,1.019-0.093,1.238-0.283c0.22-0.196,0.364-0.483,0.428-0.867l0.74-4.708h-9.018
			c-0.602,0-1.012,0.098-1.237,0.289c-0.226,0.196-0.364,0.479-0.428,0.867l-0.55,3.552c-0.063,0.384-0.012,0.671,0.145,0.867
			c0.162,0.19,0.544,0.283,1.146,0.283H585.062z"/>
		<path fill="#009D4E" d="M602.391,357.653l-0.053,0.347c-0.046,0.231-0.173,0.347-0.388,0.347h-7.981
			c-1.11,0-1.868-0.161-2.284-0.485c-0.411-0.324-0.55-0.978-0.394-1.961l1.249-7.797c0.15-0.98,0.486-1.637,1.001-1.955
			c0.515-0.323,1.324-0.485,2.435-0.485h7.982c0.226,0,0.323,0.115,0.271,0.347l-0.046,0.342c-0.041,0.231-0.18,0.347-0.411,0.347
			h-8.398c-0.596,0-1.006,0.099-1.237,0.289c-0.22,0.191-0.353,0.48-0.394,0.865l-1.324,8.303c-0.058,0.384-0.012,0.671,0.156,0.867
			c0.156,0.19,0.538,0.283,1.145,0.283h8.393C602.338,357.305,602.437,357.424,602.391,357.653z"/>
		<path fill="#009D4E" d="M617.082,357.653l-0.052,0.347c-0.046,0.231-0.18,0.347-0.388,0.347h-8.809
			c-1.11,0-1.874-0.161-2.285-0.485c-0.416-0.324-0.543-0.978-0.398-1.961l1.249-7.797c0.156-0.98,0.486-1.637,1.001-1.955
			c0.521-0.323,1.324-0.485,2.435-0.485h6.738c1.104,0,1.862,0.162,2.268,0.485c0.404,0.318,0.538,0.975,0.382,1.955l-0.463,2.887
			c-0.156,0.982-0.486,1.637-1.001,1.961c-0.515,0.323-1.324,0.482-2.435,0.482H606.7l-0.41,2.722
			c-0.099,0.338-0.099,0.612-0.018,0.827c0.087,0.22,0.307,0.323,0.665,0.323h9.867C617.03,357.305,617.123,357.424,617.082,357.653
			z M615.878,352.395c0.602,0,1.013-0.099,1.244-0.289c0.231-0.191,0.37-0.48,0.416-0.865l0.556-3.389
			c0.028-0.264,0.022-0.466-0.012-0.613c-0.041-0.142-0.162-0.272-0.37-0.379c-0.202-0.11-0.521-0.162-0.932-0.162h-7.548
			c-0.596,0-1.006,0.099-1.231,0.289c-0.226,0.191-0.354,0.48-0.405,0.865l-0.734,4.543H615.878z"/>
		<path fill="#009D4E" d="M637.95,355.9c-0.155,0.983-0.485,1.637-0.988,1.961c-0.515,0.324-1.319,0.485-2.43,0.485h-8.022
			c-0.248,0-0.347-0.115-0.301-0.347l0.047-0.347c0.046-0.229,0.185-0.348,0.416-0.348h8.444c0.59,0,1.007-0.093,1.232-0.283
			c0.226-0.196,0.364-0.483,0.422-0.867l0.394-2.539c0.063-0.382,0.012-0.671-0.145-0.862c-0.168-0.19-0.544-0.289-1.146-0.289
			h-6.391c-1.105,0-1.863-0.162-2.268-0.486c-0.411-0.323-0.532-0.971-0.382-1.96l0.295-1.915c0.156-0.98,0.491-1.637,1.007-1.955
			c0.515-0.323,1.324-0.485,2.435-0.485h7.981c0.226,0,0.318,0.115,0.272,0.347l-0.047,0.342c-0.046,0.231-0.185,0.347-0.416,0.347
			h-8.369c-0.596,0-1.013,0.099-1.232,0.289c-0.226,0.191-0.353,0.48-0.404,0.865l-0.394,2.42c-0.063,0.388-0.006,0.677,0.156,0.868
			c0.156,0.19,0.544,0.286,1.156,0.286h6.346c1.104,0,1.862,0.159,2.272,0.482c0.405,0.324,0.532,0.978,0.382,1.961L637.95,355.9z"
			/>
		<path fill="#009D4E" d="M653.422,355.9c-0.15,0.983-0.48,1.637-0.989,1.961c-0.503,0.324-1.318,0.485-2.418,0.485h-6.738
			c-1.11,0-1.868-0.161-2.29-0.485c-0.411-0.324-0.544-0.978-0.388-1.961l0.486-3.042c0.155-0.986,0.485-1.64,1.006-1.961
			c0.509-0.324,1.324-0.486,2.43-0.486h8.606l0.41-2.559c0.035-0.264,0.029-0.466-0.012-0.613c-0.04-0.142-0.156-0.272-0.37-0.379
			c-0.208-0.11-0.515-0.162-0.931-0.162h-9.526c-0.231,0-0.324-0.115-0.277-0.347l0.046-0.342c0.046-0.231,0.191-0.347,0.417-0.347
			h9.133c1.11,0,1.868,0.162,2.272,0.485c0.405,0.318,0.532,0.975,0.376,1.955L653.422,355.9z M650.565,357.305
			c0.596,0,1.012-0.093,1.231-0.283c0.226-0.196,0.365-0.483,0.429-0.867l0.734-4.708h-9.012c-0.602,0-1.018,0.098-1.237,0.289
			c-0.22,0.196-0.364,0.479-0.428,0.867l-0.556,3.552c-0.058,0.384-0.006,0.671,0.156,0.867c0.162,0.19,0.538,0.283,1.14,0.283
			H650.565z"/>
		<path fill="#009D4E" d="M660.553,346.698l-1.781,11.302c-0.04,0.231-0.173,0.347-0.388,0.347h-0.485
			c-0.243,0-0.347-0.115-0.307-0.347l1.787-11.302h-2.175c-0.231,0-0.323-0.115-0.277-0.347l0.046-0.342
			c0.053-0.231,0.186-0.347,0.417-0.347h2.169l0.509-3.323c0.174-0.983,0.509-1.64,1.012-1.958c0.51-0.326,1.313-0.485,2.424-0.485
			h3.736c0.226,0,0.33,0.115,0.295,0.347l-0.069,0.345c-0.012,0.229-0.139,0.344-0.388,0.344h-4.124
			c-0.607,0-1.018,0.099-1.237,0.289c-0.226,0.191-0.364,0.48-0.428,0.865l-0.55,3.577h5.599c0.231,0,0.324,0.115,0.283,0.347
			l-0.052,0.342c-0.046,0.231-0.18,0.347-0.416,0.347H660.553z"/>
		<path fill="#009D4E" d="M679.022,357.653l-0.047,0.347c-0.046,0.231-0.173,0.347-0.393,0.347h-8.81
			c-1.104,0-1.862-0.161-2.284-0.485c-0.411-0.324-0.544-0.978-0.388-1.961l1.243-7.797c0.15-0.98,0.492-1.637,1.001-1.955
			c0.521-0.323,1.33-0.485,2.435-0.485h6.732c1.105,0,1.863,0.162,2.273,0.485c0.411,0.318,0.538,0.975,0.382,1.955l-0.457,2.887
			c-0.156,0.982-0.491,1.637-1.006,1.961c-0.516,0.323-1.325,0.482-2.436,0.482h-8.624l-0.416,2.722
			c-0.093,0.338-0.099,0.612-0.012,0.827c0.087,0.22,0.307,0.323,0.659,0.323h9.867
			C678.975,357.305,679.074,357.424,679.022,357.653z M677.825,352.395c0.602,0,1.012-0.099,1.249-0.289
			c0.226-0.191,0.364-0.48,0.411-0.865l0.555-3.389c0.029-0.264,0.023-0.466-0.012-0.613c-0.04-0.142-0.162-0.272-0.37-0.379
			c-0.208-0.11-0.521-0.162-0.937-0.162h-7.537c-0.606,0-1.012,0.099-1.237,0.289c-0.226,0.191-0.358,0.48-0.399,0.865l-0.746,4.543
			H677.825z"/>
		<path fill="#009D4E" d="M685.205,347.852l-1.613,10.147c-0.047,0.231-0.18,0.347-0.394,0.347h-0.463
			c-0.249,0-0.347-0.115-0.301-0.347l1.567-9.896c0.156-0.98,0.492-1.637,1.001-1.955c0.521-0.323,1.33-0.485,2.44-0.485h5.877
			c0.231,0,0.323,0.115,0.277,0.347l-0.046,0.342c-0.041,0.231-0.186,0.347-0.411,0.347h-6.299c-0.602,0-1.012,0.099-1.231,0.289
			C685.384,347.178,685.246,347.467,685.205,347.852z"/>
	</g>
</g>
</svg>
