<?xml version="1.0" encoding="utf-8"?>
<!-- Generator: Adobe Illustrator 21.1.0, SVG Export Plug-In . SVG Version: 6.00 Build 0)  -->
<svg version="1.1" id="Layer_1" xmlns="http://www.w3.org/2000/svg" xmlns:xlink="http://www.w3.org/1999/xlink" x="0px" y="0px"
	 viewBox="0 0 500 500" style="enable-background:new 0 0 500 500;" xml:space="preserve">
<style type="text/css">
	.st0{fill:#0033A0;}
</style>
<g>
	<polygon class="st0" points="52.7,212 52.7,241.5 28.6,241.5 28.6,212 8.9,212 8.9,286.5 28.5,286.5 28.5,256 52.7,256 52.7,286.5 
		72.3,286.5 72.3,212 	"/>
	<polygon class="st0" points="132.4,211.9 116.3,243.2 100.8,211.9 78.1,211.9 105.1,259.3 105.1,286.5 124.8,286.5 124.8,259.3 
		152.6,211.9 	"/>
	<path class="st0" d="M226.6,211.9v47.2c-0.2,20.8-16,28.9-33.9,28.9s-33.7-8.1-33.9-28.9v-47.2h19.6v46.2c0.3,9.5,5,15.5,14.2,15.5
		s13.9-6,14.2-15.5v-46.2L226.6,211.9L226.6,211.9z"/>
	<polygon class="st0" points="289,211.9 289,267.3 288.8,267.5 265.1,211.9 237.6,211.9 237.6,286.5 255.3,286.5 255.3,229.4 
		255.5,229.4 279.5,286.5 306.7,286.5 306.7,211.9 	"/>
	<path class="st0" d="M338,272.1h9.2c14.2,0,20.8-7.4,20.8-22.8c0-15.4-6.6-22.9-20.8-22.9H338V272.1z M348.4,211.9
		c24.3,0,40.3,9.7,40.3,37.3s-16,37.3-40.3,37.3h-30v-74.6H348.4z"/>
	<path class="st0" d="M425.3,226.5h0.3l9.1,31h-19L425.3,226.5z M414.4,212l-28,74.6H406l4.6-14.6h28.7l4.7,14.6h22.2l-28-74.6
		H414.4z"/>
	<rect x="471.5" y="212" class="st0" width="19.6" height="74.6"/>
</g>
</svg>
