<?xml version="1.0" encoding="utf-8"?>
<!-- Generator: Adobe Illustrator 21.1.0, SVG Export Plug-In . SVG Version: 6.00 Build 0)  -->
<svg version="1.1" id="Layer_1" xmlns="http://www.w3.org/2000/svg" xmlns:xlink="http://www.w3.org/1999/xlink" x="0px" y="0px"
	 viewBox="0 0 500 500" style="enable-background:new 0 0 500 500;" xml:space="preserve">
<style type="text/css">
	.st0{fill:#D10019;}
	.st1{fill:#707173;}
</style>
<g>
	<polygon class="st0" points="24.5,163.1 83.9,187.7 83.9,304.2 50.9,245.1 50.9,195.5 24.5,173.9 	"/>
	<polygon class="st0" points="14.6,166.8 48.3,196.8 48.3,316.7 14.6,205.6 	"/>
	<polygon class="st0" points="34.4,158.4 115.5,172.5 115.5,292.1 86.5,257.3 86.5,184.3 34.4,165.5 	"/>
	<path class="st0" d="M356,277.7v-10.8v-12.3v-10.8c0-2.7-0.7-11.5-6.6-14.8c-5.7-3.2-14.7-3.2-14.9-3.2l0,0h-0.6l0,0
		c-0.2,0-9.2,0-14.9,3.2c-5.9,3.3-6.6,12.2-6.6,14.8v10.8v12.3v10.8c0,2.7,0.7,11.5,6.6,14.8c5.7,3.2,14.7,3.2,14.9,3.2l0,0h0.6l0,0
		c0.2,0,9.2,0,14.9-3.2C355.3,289.2,356,280.3,356,277.7 M337.7,279.5v0.7c0,2.9-0.7,4.2-3,4.2h-0.2h-0.1h-0.2c-2.4,0-3-1.3-3-4.2
		v-0.7v-12.4v-13.7V241v-0.7c0-2.9,0.7-4.2,3-4.2h0.2h0.1h0.2c2.4,0,3,1.3,3,4.2v0.7v12.4v13.7V279.5z"/>
	<path class="st0" d="M406.7,294.4v-55c0-3.4-0.6-8.8-3.5-11.2c-2.5-2.1-6.2-2.4-7.5-2.4l0,0h-0.3h-0.1h-0.1c0,0-6.7-0.3-10.3,2.7
		c-1.3,1-2.5,2.6-3.7,4.3h-0.4v-5.9h-18.2v67.6h18.2v-11.4v-12.8v-4.6v-9.6v-12.8v-0.7c0-3,0.7-4.3,3.2-4.3h0.2h0.1h0.2
		c2.5,0,3.2,1.4,3.2,4.3v0.7v12.8v38.5h7.4l0,0h11.6V294.4z"/>
	<path class="st0" d="M305.5,263.5v-24c0-3.4-0.6-8.8-3.5-11.2c-2.5-2.1-6.3-2.4-7.5-2.4l0,0h-0.3h-0.1H294c0,0-6.7-0.3-10.3,2.7
		c-1.3,1-2.5,2.6-3.7,4.3h-0.4v-6h-18.2v67.6h18.2v-11.4v-12.8v-4.6v-9.6v-12.8v-0.7c0-3,0.7-4.3,3.2-4.3h0.2h0.1h0.2
		c2.5,0,3.2,1.4,3.2,4.3v0.7v12.8v7.5h7.4l0,0h11.6V263.5z"/>
	<path class="st0" d="M199.1,204c-7-9.8-17.2-8.9-21-8.9h-11.3l0,0H145v99.3h21.7v-37.2H178c3.8,0,13.6,0.5,20.7-9.8
		c5.9-8.5,5.5-20.7,5.5-20.7v-0.1v-0.2v-0.2C204.2,226.2,204.7,211.8,199.1,204 M180.9,233.7c-2.5,3.7-8.8,3.6-10.2,3.6h-4.1v-10.9
		v-0.1v-11.1h5.3c1.4,0,6.3-0.3,8.9,3.2c2,2.8,2.1,7.9,2.1,7.9v0.1v0.1v0.1C182.8,226.5,183,230.7,180.9,233.7"/>
	<polygon class="st0" points="435.4,294.3 447.4,258.8 437.6,226.8 457.5,226.8 461.1,252.2 467.8,226.8 485.4,226.8 475.8,259.5 
		485.4,294.3 465.5,294.3 461.1,267 454.4,294.3 	"/>
	<path class="st0" d="M421.7,219.1c5.4,0,9.8-4.9,9.8-10.8c0-6-4.4-10.8-9.8-10.8s-9.8,4.9-9.8,10.8
		C411.9,214.2,416.3,219.1,421.7,219.1"/>
	<rect x="412.7" y="226.9" class="st0" width="18.5" height="67.6"/>
	<polygon class="st0" points="239,226.9 256.7,226.9 244.2,294.3 243.9,295.4 243.7,296.6 243.3,297.6 243,298.7 242.7,299.7 
		242.3,300.7 241.9,301.5 241.5,302.4 241,303.3 240.5,304.1 239.9,304.8 239.4,305.5 238.8,306.2 238.1,306.9 237.5,307.5 
		236.8,308 236,308.6 235.2,309.1 234.4,309.5 233.6,309.9 232.7,310.3 231.7,310.7 230.8,311 229.8,311.3 228.7,311.5 227.6,311.7 
		226.5,311.9 225.3,312.1 224.1,312.2 222.9,312.3 221.6,312.3 220.3,312.3 145,312.3 145,297.8 212.9,297.8 214.1,297.8 
		215.2,297.8 216.2,297.8 217.2,297.7 217.6,297.6 218.1,297.5 218.5,297.4 218.8,297.3 219.2,297.2 219.5,297.1 219.8,297 
		220.1,296.8 220.4,296.6 220.6,296.4 220.8,296.1 221,295.9 221.2,295.6 221.3,295.2 221.4,294.9 221.5,294.5 221.6,294.1 
		221.6,293.6 221.6,293.1 221.6,292.6 221.6,292.1 221.5,291.5 221.4,290.8 221.3,290.1 208.8,226.9 228,226.9 232.8,276.4 	"/>
	<path class="st1" d="M390.4,325.9c-4-5.2-0.8-13.3,6.5-13.3h14.8l-1.3,3.6h-7.8h-4.1c-2,0-3.1,2.5-2,3.9c1.8,2.8,5,4.8,7,7.7
		c4.3,5.7,0,13.2-6.4,13.3h-16.3l1.3-3.6h8.8h4c2,0,3.1-2.5,2-3.9C395.3,331,392.4,328.4,390.4,325.9 M375.4,341.2h-8.1l10.5-28.6
		h8.1L375.4,341.2z M415.1,341.2H407l10.5-28.6h8.1L415.1,341.2z M427.4,321.3c2.8-5.9,8.7-9.1,14.2-8.9h2.1h2.9
		c4.2,0.2,6.8,3.7,7,6.6c0,0.7,0,1.4,0,1.9l-0.2,1c-0.9,3.7-2.2,7.4-4,10.8c-2.8,5.9-8.7,9.1-14.2,8.9H433l0,0h-2.9
		c-4.2-0.2-6.8-3.7-7-6.6c-0.1-0.7,0-1.4,0-1.9l0.2-1C424.3,328.4,425.6,324.6,427.4,321.3 M442.6,315.3L442.6,315.3
		c-3,0.1-5.5,1.8-6.6,4.6l-5.3,14.5c-0.1,0.3-0.2,0.7-0.2,1.1l0,0c0,1.6,1.2,2.8,2.7,3h0.8c3-0.1,5.5-1.8,6.6-4.6l5.3-14.5
		c0.1-0.3,0.2-0.7,0.2-1.1l0,0c0-1.6-1.2-2.8-2.7-3H442.6z M356.7,332.2l13.1-19.6h4.7l-18.3,27.3c-0.5,0.7-1.3,1.2-2.2,1.2h-0.2
		h-0.1l0,0h-0.3h-2.8h-1.4l-2.2-28.6h8.1L356.7,332.2z M462.1,321.8v-0.3l-7.3,19.7h-4.2l10.6-28.6h5.3l7.6,19.3l7.1-19.3h4.2
		l-10.6,28.6H471c-1.1-0.1-2-0.7-2.4-1.7L462.1,321.8z"/>
	<path class="st0" d="M303.1,341.2h-8.6l10.5-28.6h0.3h8.1h0.2L303.1,341.2z M276.7,323.6h10.2l4.1-11h8.6l-9.9,26.8l0,0l0,0
		c-0.4,1-1.4,1.7-2.5,1.7h-6.7l5-13.7h-10.2l-5,13.7h-8.6l10.5-28.6h8.6L276.7,323.6z M324,323.3l14-10.7h6.4l-14.3,11l9.1,17.6
		h-7.3h0.1c-1.1,0.1-2.2-0.6-2.6-1.5l0,0l0,0l-5.7-11l-2.1,1.6l-4,11H309l10.5-28.6h8.6L324,323.3z"/>
</g>
</svg>
