<?xml version="1.0" encoding="utf-8"?>
<!-- Generator: Adobe Illustrator 21.1.0, SVG Export Plug-In . SVG Version: 6.00 Build 0)  -->
<svg version="1.1" id="Layer_1" xmlns="http://www.w3.org/2000/svg" xmlns:xlink="http://www.w3.org/1999/xlink" x="0px" y="0px"
	 viewBox="0 0 500 500" style="enable-background:new 0 0 500 500;" xml:space="preserve">
<g>
	<path d="M106,206.9c-0.4,2.7-0.9,5.4-1.3,8c-0.4,2.5-0.7,5-1.2,7.5c-0.3,1.7-0.6,3.5-1,5.3c-7.8,0-15.7,0-23.7,0
		c-3.3,21-6.2,42-9.5,63c-8.2,0-16.3,0-24.4,0c0-0.4,0-0.7,0-1.1c0.2-1.8,0.5-3.6,0.8-5.4c0.2-1.3,0.4-2.6,0.6-3.9
		c0.2-0.9,0.3-1.9,0.5-2.8c0.2-1.5,0.4-2.9,0.7-4.4c0.2-1.5,0.5-2.9,0.7-4.4c0.3-2.2,0.7-4.5,1-6.7c0.2-1.5,0.4-3.1,0.6-4.6
		c0.2-1.6,0.5-3.2,0.7-4.8c0.1-0.8,0.2-1.6,0.3-2.4c0.4-2.2,0.7-4.5,1-6.7c0.2-1.4,0.4-2.8,0.6-4.2c0.2-1.5,0.5-3,0.7-4.5
		c0.1-0.9,0.2-1.7,0.4-2.6c0.1-0.9,0.3-1.9,0.4-2.8c0.1-0.5,0.1-1,0.2-1.5c-0.4,0-0.7-0.1-1-0.1c-7.8,0-15.5,0-23.2,0
		c0-0.2,0-0.4,0-0.6c0.1-0.2,0.2-0.4,0.3-0.6c0.1-0.5,0.1-1,0.2-1.5c0.2-1.3,0.4-2.6,0.6-3.9s0.4-2.6,0.6-3.9c0.3-2,0.7-3.9,1-5.9
		c0.3-1.6,0.6-3.1,0.8-4.7C57.8,206.9,81.9,206.9,106,206.9z"/>
	<path d="M209.2,267.3c0,2.9,0.2,5.6,1.8,8c1.2,1.9,3,3,5.2,3.5c2.1,0.5,4.3,0.4,6.5-0.2c2.2-0.6,3.7-1.8,4.8-3.8
		c0.1-0.1,0.2-0.2,0.3-0.4c7,0,14,0,21.1,0c-0.1,0.3,0,0.6-0.1,0.8c-0.7,1.6-1.5,3.2-2.3,4.8c-1.2,2.3-2.9,4.2-4.8,5.8
		c-3.6,3-7.8,5-12.4,6.1c-2.1,0.5-4.3,0.8-6.4,1c-2.3,0.2-4.6,0.3-7,0.2c-5.8-0.2-11.3-1.5-16.4-4.3c-5-2.8-8.5-6.8-10.5-12.2
		c-0.8-2.1-1.3-4.3-1.7-6.6c-0.4-2.4-0.3-4.8-0.2-7.3c0.3-4.3,1.2-8.5,3-12.5c0.9-2,1.9-3.9,3.2-5.7c2.3-3.1,5-5.8,8.4-7.8
		c2.4-1.4,5-2.6,7.7-3.4c1.8-0.5,3.6-0.9,5.5-1.1c1.6-0.2,3.2-0.4,4.9-0.5c1.2-0.1,2.4,0.1,3.6,0.2c3.7,0.1,7.2,0.7,10.7,1.9
		c4.2,1.5,7.9,3.7,10.8,7.2c2.1,2.4,3.6,5.3,4.6,8.3c0.7,2.1,1.3,4.2,1.4,6.4c0.1,0.9,0.2,1.7,0.4,2.7c0.2-0.4,0.3-0.8,0.4-1.2
		c0.6-3.1,1.6-6.1,3-8.9c1.2-2.4,2.9-4.6,4.7-6.7c2.6-2.7,5.6-4.9,8.9-6.4c2.9-1.3,5.8-2.2,8.9-2.7c3.4-0.6,6.8-0.6,10.2-0.4
		c1.7,0.1,3.4,0.5,5.1,0.7c2.1,0.2,4.2,0.9,6.1,1.7c3.7,1.5,7,3.5,9.6,6.6c1.4,1.7,2.5,3.5,3.2,5.5c0.6,1.7,1.3,3.4,1.4,5.2
		c0,0.2,0.2,0.5,0.4,0.9c0.9-2.8,2.3-5.3,3.7-7.6c0.3-0.5,0.6-0.9,0.9-1.3c1.3-1.4,2.5-2.9,4-4.2c3.5-3.1,7.6-5.1,12.1-6.5
		c1.7-0.6,3.5-0.9,5.3-1.1c2.7-0.3,5.4-0.6,8.2-0.5c4.3,0.2,8.6,0.8,12.6,2.5c2.7,1.2,5.2,2.6,7.5,4.5c3.1,2.7,5.2,5.9,6.7,9.7
		c0.8,2,1.2,4.1,1.6,6.2c0.2,1.2,0.2,2.4,0.3,3.7c0,0.4,0.1,0.9,0.2,1.3c1.3-8.6,2.5-17.1,3.8-25.7c6.6,0,13.2,0,19.8,0
		c-0.3,2.2-0.6,4.3-0.9,6.4c0,0.1,0.1,0.2,0.2,0.4c0.2-0.1,0.4-0.2,0.5-0.3c1.7-2.3,4-3.9,6.3-5.4c2.2-1.5,4.7-2.3,7.2-2.7
		c1.8-0.3,3.6-0.7,5.4-0.2c1,0.3,2.2,0.1,3.2,0.4c3.7,0.7,6.6,2.6,8.4,5.9c0.6,1,1,2,1.5,3.1c0.1,0.2,0.3,0.4,0.5,0.8
		c0.4-0.4,0.6-0.8,0.9-1.1c2.6-2.8,5.4-5.3,8.9-6.9c2.3-1.1,4.6-1.9,7.2-2c1-0.1,2.1-0.3,3.1-0.2c2.9,0.1,5.7,0.5,8.3,1.8
		c3.8,1.8,6.5,4.7,8,8.7c1,2.8,1.4,5.7,1.3,8.7c-0.1,1.3-0.3,2.6-0.5,3.9c-0.1,1-0.2,2-0.3,3c-0.2,1.7-0.5,3.4-0.8,5.1
		c-0.1,0.8-0.2,1.6-0.3,2.4c-0.3,1.9-0.6,3.8-0.8,5.6c-0.2,1.6-0.4,3.2-0.6,4.7c-0.2,1.8-0.5,3.6-0.8,5.4c-0.1,0.8-0.2,1.6-0.3,2.4
		c-0.2,1.7-0.4,3.3-0.6,5c-0.1,0.6-0.2,1.2-0.4,1.9c-7.1,0-14.1,0-21.3,0c0-0.6-0.1-1,0-1.5c0.2-1.8,0.5-3.7,0.8-5.5
		c0.2-1.6,0.5-3.1,0.8-4.7c0.1-0.9,0.2-1.7,0.3-2.6c0.2-1.8,0.6-3.7,0.8-5.5c0.2-1.6,0.4-3.2,0.6-4.7c0.2-1.7,0.5-3.4,0.8-5.1
		c0.1-1.1,0.2-2.2,0.3-3.2c0.1-0.8,0.2-1.6,0.2-2.4c0-0.6-0.1-1.3-0.2-1.9c-0.3-2.4-2.3-3.4-4.2-3.8c-1.3-0.2-2.5-0.1-3.7,0.2
		c-2.6,0.7-4.1,2.5-5,5c-0.7,2-1.1,4-1.4,6.1c-0.3,2-0.7,4-1,6c-0.1,0.8-0.2,1.6-0.4,2.4c-0.4,2.2-0.7,4.5-1,6.7
		c-0.2,1.5-0.4,3.1-0.6,4.6c-0.2,1.7-0.5,3.3-0.7,5c-0.2,1.7-0.5,3.3-0.7,5c-7.1,0-14.1,0-21.3,0c0-0.4-0.1-0.8,0-1.2
		c0.2-1.7,0.5-3.4,0.8-5.1c0.2-1.6,0.5-3.2,0.7-4.8c0.1-0.8,0.2-1.5,0.3-2.3c0.3-1.9,0.6-3.8,0.8-5.6c0.2-1.8,0.4-3.5,0.6-5.3
		c0.2-1.7,0.5-3.4,0.8-5.1c0.1-0.8,0.2-1.5,0.3-2.3c0.1-1.2,0.2-2.4,0.3-3.5c0.1-1.6-0.3-3.1-1.1-4.2c-1.6-1.6-3.5-1.8-5.4-1.8
		c-3.3,0.1-5.5,1.9-6.7,5c-0.7,2.1-1.1,4.2-1.4,6.4c-0.2,1.5-0.5,2.9-0.7,4.4c-0.1,0.8-0.2,1.6-0.4,2.4c-0.2,1.6-0.6,3.2-0.8,4.8
		c-0.2,1.5-0.4,3.1-0.6,4.6c-0.3,2-0.7,4-1,6c-0.1,0.8-0.2,1.5-0.4,2.3c-0.2,1.7-0.4,3.4-0.7,5.1c-0.1,0.1-0.1,0.1-0.1,0.1
		c0,0-0.1,0.1-0.1,0.1c-6.8,0-13.7,0-20.5,0.1c-0.2,0-0.4,0-0.7-0.1c0.4-3.2,1-6.3,1.4-9.4c0.4-3.1,0.9-6.2,1.2-9.4
		c-0.1,0.3-0.3,0.5-0.4,0.8c-1.1,3.2-2.6,6.2-4.8,8.8c-2.3,2.7-4.8,5.2-8.1,6.9c-3,1.5-6.1,2.9-9.4,3.6c-1.7,0.4-3.4,0.7-5.1,0.7
		c-1.5,0.1-3.1,0.2-4.6,0.2c-1.8,0-3.7-0.1-5.4-0.3c-5.1-0.6-9.8-2.2-14.1-5c-3-2-5.4-4.6-7.3-7.7c-1.6-2.6-2.5-5.4-3.2-8.6
		c-0.2,0.6-0.4,0.9-0.5,1.3c-0.5,1.8-1.3,3.5-2,5.2c-1,2.2-2.4,4.1-3.9,5.9c-1.9,2.2-4.2,4-6.9,5.4c-2.7,1.5-5.6,2.5-8.6,3.1
		c-1.7,0.4-3.4,0.5-5.1,0.7c-1,0.1-2.1,0.3-3.1,0.2c-2.8-0.1-5.5-0.3-8.3-0.7c-4.6-0.7-8.8-2.4-12.5-5c-3-2.1-5.4-4.7-7.1-8
		c-1.5-2.9-2.4-5.8-2.8-9c-0.1-0.9-0.2-1.8-0.4-2.8c-0.2-0.1-0.4-0.2-0.7-0.2c-0.3,0-0.6,0-0.8,0c-12.7,0-25.5,0-38.2,0
		C210.3,267.2,209.8,267.2,209.2,267.3z M292.2,255.4c-0.3-1.3-0.4-2.4-0.8-3.5c-0.3-1-0.9-2.1-1.7-2.7c-1-0.7-2-1.5-3.3-1.5
		c-0.9-0.1-1.8-0.2-2.7-0.2c-2.3-0.1-4,0.9-5.7,2.3c-1.8,1.6-2.8,3.7-3.6,5.9c-0.6,1.6-1,3.3-1.1,5c-0.1,1.8-0.4,3.6-0.5,5.4
		c-0.1,0.8,0.2,1.5,0.2,2.3c0.1,1.4,0.3,2.8,0.8,4.1c0.7,1.8,1.9,3.2,3.6,4.2c1.5,0.9,3.1,0.9,4.6,0.8c3.1-0.1,5.3-1.7,7-4.1
		c0.9-1.3,1.3-2.9,1.7-4.5c6.9,0,13.8,0,20.8,0c0-0.4,0-0.8,0-1.2c0-2-0.1-3.9,0-5.9c0.1-1.3,0.3-2.5,0.5-3.8
		c0.1-0.8,0.2-1.7,0.4-2.6C305.5,255.4,298.8,255.4,292.2,255.4z M334.1,265C334,265,334,265,334.1,265c0,0.9,0,1.7,0,2.6
		c0,2,0.5,4,1.5,5.8c0.6,1.1,1.4,1.9,2.5,2.5c1.5,0.9,3.2,0.9,4.9,1c2.3,0,4.3-1,5.8-2.5c1.5-1.5,2.5-3.4,3.3-5.4
		c1.2-3.1,1.4-6.3,1.6-9.5c0.1-1-0.2-2.1-0.2-3.1c0-1.3-0.2-2.6-0.6-3.7c-0.3-1-0.7-2-1.4-2.8c-2.4-3-6-3.5-9.2-2.4
		c-2.8,1-4.6,3-5.9,5.6c-1.4,3-2,6.3-2.2,9.6C334,263.4,334.1,264.2,334.1,265z M229.8,256.1c0.2-2.6-0.4-4.8-1.7-6.8
		c-0.6-1-1.5-1.9-2.5-2.5c-2.4-1.5-5-1.6-7.7-0.9c-1.9,0.5-3.4,1.5-4.6,3c-1.7,1.9-2.6,4.1-3,6.6c0,0.2,0.1,0.4,0.1,0.6
		C216.9,256.1,223.3,256.1,229.8,256.1z"/>
	<path d="M98.5,266.7c-0.1,0.4-0.2,0.6-0.2,0.7c0.3,2.3,0.3,4.7,1.5,6.9c1.2,2.2,3.2,3.4,5.5,3.9c1.2,0.3,2.5,0.3,3.8,0.3
		c1.4,0,2.7-0.4,3.9-0.9c1.5-0.7,2.7-1.7,3.4-3.2c0.1-0.2,0.2-0.3,0.3-0.5c7,0,14,0,21.2,0c-0.1,0.5-0.2,0.9-0.3,1.3
		c-1.4,3.9-3.7,7.3-6.9,10c-2.3,1.9-4.8,3.4-7.6,4.5c-2.8,1.1-5.7,1.8-8.7,2.3c-3.4,0.5-6.8,0.7-10.2,0.5c-3.2-0.2-6.5-0.7-9.6-1.7
		c-3.2-1-6.2-2.4-8.9-4.5c-2.5-1.8-4.5-4.2-6.1-6.8c-1.7-2.9-2.8-6-3.3-9.3c-0.4-2.3-0.5-4.7-0.3-7.1c0.3-2.8,0.5-5.7,1.3-8.4
		c0.4-1.4,0.8-2.9,1.4-4.2c0.9-2,1.7-3.9,3-5.7c2.4-3.5,5.3-6.4,9.1-8.6c2.8-1.7,5.8-2.9,8.9-3.7c1.5-0.4,3-0.4,4.4-0.7
		c2.5-0.5,5-0.2,7.5-0.2c4.3,0,8.4,0.7,12.4,2.3c3.1,1.3,6,3,8.5,5.4c3.1,3.1,5,6.7,6.2,10.8c0.6,1.9,1,3.9,1.2,5.8
		c0.4,2.6,0.4,5.3,0.3,7.9c-0.1,0.9-0.2,1.9-0.4,2.9c-1.3,0.2-2.6,0.1-4,0.1c-1.4,0-2.8,0-4.1,0c-1.4,0-2.8,0-4.3,0
		c-1.4,0-2.8,0-4.1,0c-1.4,0-2.8,0-4.1,0c-1.4,0-2.8,0-4.1,0c-1.4,0-2.8,0-4.1,0c-1.4,0-2.8,0-4.3,0c-1.4,0-2.8,0-4.1,0
		C101.3,266.7,100,266.7,98.5,266.7z M99.4,255.3c0.1,0.1,0.2,0.2,0.4,0.3c0.6,0.2,18.3,0,19-0.1c0.3-2-0.2-3.9-1-5.7
		c-1-2.3-2.7-3.8-5.2-4.3c-1.6-0.3-3.2-0.5-4.8-0.2c-1.5,0.3-2.9,0.9-4.1,1.8C101.1,249.1,99.8,251.9,99.4,255.3z"/>
	<path d="M176.2,262c6,9.7,12.2,19.1,18.2,28.9c-7.8,0-15.4,0-23.2,0c-2.6-4.4-5.3-8.9-8-13.5c-3.5,4.6-7,9.1-10.5,13.5
		c-8.2,0-16.3,0-24.7,0c8.1-9.8,16.1-19.5,24.2-29.1c-0.2-0.4-0.4-0.8-0.6-1.1c-2.8-4.3-5.6-8.5-8.4-12.8c-2.9-4.5-5.9-9-8.8-13.5
		c-0.1-0.1-0.1-0.2-0.2-0.4c8.2,0,16.3,0,24.5,0c2.3,3.9,4.7,8,7.2,12.1c3.2-4,6.4-8.1,9.5-12.1c8.1,0,16.2,0,24.5,0
		C192,243.4,184.1,252.7,176.2,262z"/>
</g>
</svg>
